<svg width="72" height="48" viewBox="0 0 72 48" fill="none" xmlns="http://www.w3.org/2000/svg">
<g clip-path="url(#clip0_1124_1125)">
<path d="M69.0141 32.6806C67.2324 30.8908 65.1334 29.9878 62.7009 29.9878C60.2683 29.9878 58.1205 30.8745 56.3388 32.6562C54.5571 34.4379 53.6703 36.5369 53.6703 38.9694C53.6703 39.7749 53.7761 40.5396 53.9714 41.2718C51.7422 41.6623 48.8215 42.2155 48.1056 42.183C46.9992 42.1342 46.1856 41.9959 45.6649 41.7518C44.8107 41.3532 44.1842 40.7674 43.7693 39.9701C43.3625 39.181 43.151 38.0989 43.151 36.7322C43.151 35.2433 43.2161 32.1437 43.3544 27.4332C43.4927 22.7227 43.5578 18.6549 43.5578 15.2135C43.5578 11.9593 43.0046 9.32335 41.8981 7.30572C40.7917 5.28809 39.2947 3.74233 37.4073 2.67657C35.4303 1.5864 33.2175 0.86233 30.7524 0.512499C28.2873 0.162669 25.5863 -0.00817871 22.6412 -0.00817871C20.5178 -0.00817871 18.2073 0.244025 15.7097 0.740296C13.2202 1.2447 11.0154 1.9525 9.10356 2.86369C7.15916 3.74233 5.50763 4.86504 4.15712 6.21555C2.80661 7.56606 2.13136 9.09555 2.13136 10.7959C2.13136 12.7728 2.79034 14.3756 4.10017 15.604C5.41 16.8325 7.34628 17.4508 9.90899 17.4508C11.707 17.4508 13.0412 17.2881 13.9117 16.9464C14.7822 16.6128 15.5632 16.141 16.2629 15.5308C16.7836 15.0752 17.1741 14.4569 17.4507 13.684C17.7273 12.9111 17.8656 12.2603 17.8656 11.7478C17.8656 10.5925 17.6541 9.39657 17.2229 8.14369C16.7998 6.89894 16.5395 5.97148 16.4419 5.36131C16.987 4.96267 17.711 4.5803 18.6059 4.19792C19.5009 3.81555 20.6236 3.62843 21.9578 3.62843C23.4466 3.62843 24.6507 3.96199 25.5619 4.62911C26.4731 5.29623 27.1402 6.11792 27.5714 7.09419C27.9619 7.94843 28.2222 8.98979 28.3442 10.2427C28.4663 11.4874 28.5232 12.4881 28.5232 13.2528V17.6298C26.7578 18.484 23.9592 19.4522 20.1192 20.5261C16.2873 21.6081 13.0005 22.6494 10.2588 23.6501C8.82695 24.1952 7.50899 24.7891 6.31306 25.4318C5.10899 26.0745 4.05136 26.88 3.14017 27.8481C2.1395 28.9139 1.35848 30.1423 0.813394 31.5254C0.268309 32.9084 -0.00830078 34.5925 -0.00830078 36.5695C-0.00830078 40.0108 1.23645 42.7688 3.73407 44.8596C6.2317 46.9423 9.24187 47.9837 12.7727 47.9837C15.1483 47.9837 16.9951 47.8128 18.3212 47.4793C19.6473 47.1457 21.0222 46.6413 22.4541 45.9742C23.5524 45.4617 24.5775 44.8352 25.5375 44.103C26.4975 43.3708 27.49 42.4922 28.5314 41.4589H28.808C29.4425 43.5254 30.6466 45.1118 32.4039 46.2183C34.1612 47.3247 36.911 47.8779 40.6371 47.8779C42.671 47.8779 44.591 47.6339 46.4134 47.1457C47.9754 46.7308 53.3612 45.2664 55.688 44.4935C55.8914 44.7376 56.111 44.9735 56.347 45.2013C58.1287 46.9505 60.2439 47.821 62.709 47.821C65.1741 47.821 67.2405 46.9423 69.0222 45.1769C70.8039 43.4115 71.6907 41.3369 71.6907 38.9288C71.6907 36.5206 70.8039 34.4298 69.0222 32.64L69.0141 32.6806ZM28.3524 37.3179C27.5307 38.3267 26.5788 39.1728 25.4968 39.8562C24.4147 40.5396 23.0317 40.8813 21.3558 40.8813C19.7693 40.8813 18.4351 40.3444 17.3531 39.2786C16.271 38.2128 15.7259 36.4881 15.7259 34.1125C15.7259 32.3145 16.0432 30.7525 16.6859 29.4264C17.3286 28.1003 18.2073 27.0101 19.3381 26.1559C20.4039 25.3342 21.7788 24.5532 23.4548 23.8047C25.1307 23.0562 26.8229 22.3972 28.5314 21.8196L28.3524 37.3098V37.3179Z" fill="#49EEE4"/>
</g>
<defs>
<clipPath id="clip0_1124_1125">
<rect width="71.6827" height="48" fill="white"/>
</clipPath>
</defs>
</svg>
