<?xml version="1.0" encoding="utf-8"?>
<!-- Generator: Adobe Illustrator 27.0.0, SVG Export Plug-In . SVG Version: 6.00 Build 0)  -->
<svg version="1.1" id="Layer_1" xmlns="http://www.w3.org/2000/svg" xmlns:xlink="http://www.w3.org/1999/xlink" x="0px" y="0px"
	 viewBox="0 0 469 428" style="enable-background:new 0 0 469 428;" xml:space="preserve">
<style type="text/css">
	.st0{fill-rule:evenodd;clip-rule:evenodd;fill:#939DFC;}
	.st1{fill:#7880CE;}
	.st2{fill:#FFFFFF;stroke:#FFFFFF;stroke-width:3;}
	.st3{fill:#FFFFFF;}
	.st4{fill:#FFFFFF;filter:url(#Adobe_OpacityMaskFilter);}
	
		.st5{mask:url(#path-4-outside-1_1124_1134_00000000214898208068996560000016190100538288697245_);fill:none;stroke:#FFFFFF;stroke-width:6;}
	.st6{fill:#FFFFFF;filter:url(#Adobe_OpacityMaskFilter_00000172402627955651568280000018041413853874224517_);}
	.st7{mask:url(#path-6-outside-2_1124_1134_00000051359026526803368720000013921079228986152120_);fill:#FFFFFF;}
	.st8{fill:#262C5B;}
	.st9{fill:#939DFC;}
</style>
<path class="st0" d="M241.4,9c-47.1-1.3-77.3,44.4-114.5,73.4C80.2,118.8-0.8,137.7,0,197c0.8,59.3,86.8,70.7,129.8,111.6
	c40.8,38.8,56,109,111.5,118c58.8,9.6,113.2-32.1,155-74.5c41.4-42.1,81.3-96.9,71-155.1c-9.7-54.6-75.2-72.7-117.9-108.2
	C313.7,59,287.9,10.4,241.4,9z"/>
<path class="st1" d="M217.6,330.1c70.4,0,127.4-22.6,127.4-50.4s-57-50.4-127.4-50.4S90.2,251.8,90.2,279.7S147.2,330.1,217.6,330.1
	z"/>
<path class="st2" d="M165,182.3l-0.1-1.3h-1.4h0H162v1.5v9.3l3,0.2C165.3,188.7,165.3,185.5,165,182.3z"/>
<path class="st3" d="M345,219.6c-0.1-1.2-0.9-2.3-1.6-3.2c-5.2-6.4-12.7-11.4-20.9-11.7c-6-0.2-11.8,2-17.5,4.2h-0.1
	c0.8-5.3,1.6-10.5,2.5-15.8h0.2c1.5-0.2,2.9-1,3.9-2.3c1-1.2,1.4-2.7,1.3-4.1l0,0c1.1-1.1,1.9-2.4,2.6-3.7c2.1-3.6,4.3-7.3,5.3-11.5
	c1.1-4.7,0.3-9.2-2.2-12.2c-0.2-0.3-0.4-0.5-0.6-0.7c-0.5-0.6-1-1.1-1.3-1.7c-0.5-0.8-0.6-2,0-2.7c0.2-0.2,0.5-0.5,0.8-0.7
	c0.5-0.4,1.1-0.8,1.2-1.6c0-0.8-0.6-1.4-1.1-1.9c-4.6-4.1-5.2-10.9-5.7-16.9c-0.6-6.7-1.5-14.5-3.9-21.9
	c-2.5-7.7-6.5-14.3-11.6-18.8c-1.1-2.4-3.3-4-6.5-4.8c-2.3-0.5-4.8-0.6-7.1-0.7l-0.9,0c-4.4-0.1-8.8-0.5-13.1-1.1
	c-1-2-0.9-4.5,0.4-6.4c0.7-1.1,1.8-2.1,1.7-3.3c-0.1-1.1-1-1.8-1.9-2.3c-1.6-0.9-3.3-1.3-4.8-2.2c-1.6-0.8-3.1-2.1-3.4-3.8
	c-0.4-1.8,0.6-3.8-0.1-5.5c-0.8-2.1-3.5-2.7-5.7-2.5c-1.3,0.1-2.7,0.4-3.9,0.2c-1.3-0.2-2.6-1-2.9-2.3c0,0,0,0.1,0,0.1
	c0.1-1.9,0.1-3.7-0.1-5.6c-0.2-2.3-1.1-5.2-3.4-6.2c-2.2-0.9-4.7,0.4-6.1,2.4c2.6-6.9,4.1-14.7,1.2-21.5c-1.9-4.3-4.3-8.1-8.2-10.8
	c-4.4-3-6.7-5.1-11.6-7.1c-5.7-2.3-13.2-4.9-19.2-5.5c-4-0.5-10.3-1.1-13,1.9c-0.2,0.3-0.5,0.5-0.6,0.9c-0.2,0-0.4-0.1-0.6-0.1
	c-6.8,0-13.4,3.8-16.8,9.6c-0.8,1.4-1.4,2.8-2.3,4c-1.6,2.2-4.2,3.6-5.8,5.7c-1.1,1.5-1.8,3.3-2.4,5c-1.3,3.5-2.6,7.1-3.2,10.7
	c-0.4,2.1-0.6,4.2-0.3,6.3c0.1,1.1,0.5,2.3,0.8,3.4c0.2,0.9,0.6,1.7,1,2.5c-0.1,0.1-0.1,0.2-0.1,0.3c0.4,1,0.9,1.9,1.5,2.8
	c0.4,0.5,0.7,1,1.1,1.5l0,0.1c0.2,0.3,0.4,0.6,0.6,0.9c2.2,3.5,4.3,7.1,6,10.9c-0.5,0.3-1.1,0.6-1.5,0.9c-0.7,0.5-1.5,1-1.9,1.8
	c-0.4,0.8-0.4,1.8,0.2,2.4c1.2,0,2.2,0.8,3.1,1.7c1,2.8,2.3,5.2,4,7.1c0.2,0.2,0.5,0.5,0.6,0.7c-0.2,0.7-0.6,1.3-1.3,1.7
	c-1.5,1.1-3.6,0.7-5.5,0.5c-1.9-0.2-4.2,0.1-4.9,1.8c-0.8,1.9,0.7,4.1,0.1,6c-0.3,1-1.1,1.6-1.8,2.4c-0.7,0.7-1.2,1.7-1,2.7
	c0.3,1.4,2.1,1.9,2.7,3.2c0.5,0.9,0.3,2-0.1,2.8c-0.4,0.9-1,1.7-1.5,2.6c-0.7,1.3-1.2,2.7-0.9,4.2c0.2,1.4,1.3,2.8,2.7,3.1
	c1.1,0.2,2.2-0.1,3.1,0.5c0.6,0.5,0.7,1.5,0.9,2.3c0.1,0.8,0.5,1.8,1.2,2c0.6,0.2,1.3-0.1,1.7-0.7c0.1-0.2,0.3-0.4,0.4-0.6
	c-0.5,3.4-2.3,6.5-4.2,9.4c-1.7,2.7-3.5,5.6-4.1,8.8c-0.6,4.2-1,8.7,1.3,12h0c-1.6,0-3.1,1.4-3.7,2.8c-0.7,1.6-0.5,3.6-0.2,5.2
	c0,0.3,0.1,0.5,0.1,0.8c0.2,1.4,0.5,2.8,0.3,4.2c0,0.4-0.1,0.9-0.2,1.3c-0.1,0.7-0.3,1.4-0.3,2.2c0,2.2,1.5,4.2,4.3,6.1
	c0.8,0.6,1.6,1,2.4,1.5c-0.5,0.3-1,0.8-1.2,1.5c-0.2,0.7-0.2,1.6-0.1,2.2c0.1,1.4,0.5,2.7,1,3.9c0.1,0.2,0.2,0.5,0.5,0.7
	c0.2,0.1,0.4,0.1,0.6,0.1v0.3h0c0.3,3.1,0.3,6.2,0,9.3v-9.3l-0.4,0c0.3,3.1,0.3,6.2,0,9.3l-58.9,2.8l4.9,43.8v0.1
	c-7.7,9.4-17.2,17.3-27.7,23.4c0.5,7.5-2,15.8,2,22.1c1.1,1.8,2.8,3.3,4.5,4.7c7.5,6,16.7,9.3,26,11.5c9.3,2.2,18.8,3.3,28.1,5.1
	c5.4,1.1,10.8,2.4,16.3,3.1c6.4,0.7,12.9,0.5,19.4,0c11.6-1,23-2.8,34.2-5.7l-0.2-0.3l11-9.1c3.2-2.7,4.9-4.7,7.5-7.6l0.7-0.8
	c0,0,0.1-0.1,0.1-0.1c-0.1,0-0.3,0-0.4,0c-0.1,0-0.1,0,0,0c-0.1,0-0.3,0-0.5,0.1c-4.8,0.8-9.6-1.1-13.8-2.6c0.1,0,0.2,0,0.3,0
	c-14.8-4.6-29.5-9.1-44.3-13.7l-22.7-6.9l1.5,0l21.4,6.6c14.9,4.6,29.8,9.2,44.7,13.8l0.2,0c0.1,0,0.2,0,0.2,0.1
	c6-1.1,11.9-2.2,17.9-3.3c2.6-4,5-8.3,7.3-12.6c3.6-6.6,7.3-13.4,11.9-18.8c10.1-11.6,25.6-16.8,41-20.8c5.7-1.5,11.9-3.4,13.9-8.7
	l0.4,0.1c-2.1,5.5-8.4,7.6-14.2,9c-15.3,3.9-30.8,9.1-40.7,20.6c-4.7,5.4-8.3,12.2-11.9,18.8c-3.6,6.6-7.3,13.5-12,18.9l-0.7,0.7
	c-2.6,3-4.3,5-7.6,7.7l-10.9,9.1c0,0.4,0,0.9,0,1.3l-0.1,0.1c-1.8,1.4-3.7,2.7-5.9,3.7c-1.1,0.5-2.4,0.8-3.6,1.1
	c0-0.1,0.1-0.1,0.2-0.2c-1.6-0.8-3.7-0.7-5.4,0c-1.7,0.7-3.2,1.8-4.6,3.1c-2.8,2.6-5.1,5.7-6.8,9.5c-3.3,6-6.4,12.1-9,18.4
	c-2.1,5.1-4,10.4-4.1,15.9c-0.1,5.5,1.7,11.4,6,14.8c2.1,1.7,4.7,2.8,7.3,3.5c2.5,0.6,5.2,0.9,7.6,0.2c2.1-0.6,3.9-2.1,5.4-3.7
	c4.1-4.4,6-10.5,7.7-16.3c0.3-1.1,0.7-2.3,0.5-3.5c-0.1-0.5-0.3-1.1-0.5-1.6c0.5-1.5,0.8-3,1.1-4.5c0.9-3.6,1.7-7.4,3.7-10.5
	c2.5-4,8.4-7.4,12.9-10c0.4,0.2,0.7,0.4,1.1,0.5c0.4,0.1,0.8,0.3,1.2,0.2c0.5-0.1,0.7-0.6,1-1c1.9-2.9,5-4.6,8.1-6.3l0,0
	c0.2,0.3,0.4,0.7,0.6,1.1c1.6,5.7,3.8,11.3,6.4,16.7c1.7,3.5,3.6,6.9,6.6,9.4c3,2.5,7.1,3.8,10.7,2.4c2.4-0.9,4.2-2.7,5.7-4.8
	c4.3-6,5.7-13.9,4.6-21.3c-1.1-7.4-4.4-14.2-8.7-20.3c-0.1,0-0.1,0-0.2,0c8.5-6.4,16.7-13.2,25.1-19.6
	c16.5-12.6,34.4-24.1,46.9-40.8c4.1-5.4,7.5-11.4,10.5-17.5C344.6,221.8,345.1,220.7,345,219.6z M204.3,65.4
	C204.3,65.4,204.3,65.5,204.3,65.4L204.3,65.4z M239.2,70.6L239.2,70.6L239.2,70.6z M260.6,301.6L260.6,301.6
	C260.6,301.6,260.6,301.6,260.6,301.6C260.6,301.5,260.6,301.6,260.6,301.6z"/>
<defs>
	<filter id="Adobe_OpacityMaskFilter" filterUnits="userSpaceOnUse" x="78" y="0" width="270" height="377.5">
		<feColorMatrix  type="matrix" values="1 0 0 0 0  0 1 0 0 0  0 0 1 0 0  0 0 0 1 0"/>
	</filter>
</defs>
<mask maskUnits="userSpaceOnUse" x="78" y="0" width="270" height="377.5" id="path-4-outside-1_1124_1134_00000000214898208068996560000016190100538288697245_">
	<rect x="78" y="0" class="st4" width="271" height="378"/>
	<path d="M345,219.6c-0.1-1.2-0.9-2.3-1.6-3.2c-5.2-6.4-12.7-11.4-20.9-11.7c-6-0.2-11.8,2-17.5,4.2h-0.1c0.8-5.3,1.6-10.5,2.5-15.8
		h0.2c1.5-0.2,2.9-1,3.9-2.3c1-1.2,1.4-2.7,1.3-4.1l0,0c1.1-1.1,1.9-2.4,2.6-3.7c2.1-3.6,4.3-7.3,5.3-11.5c1.1-4.7,0.3-9.2-2.2-12.2
		c-0.2-0.3-0.4-0.5-0.6-0.7c-0.5-0.6-1-1.1-1.3-1.7c-0.5-0.8-0.6-2,0-2.7c0.2-0.2,0.5-0.5,0.8-0.7c0.5-0.4,1.1-0.8,1.2-1.6
		c0-0.8-0.6-1.4-1.1-1.9c-4.6-4.1-5.2-10.9-5.7-16.9c-0.6-6.7-1.5-14.5-3.9-21.9c-2.5-7.7-6.5-14.3-11.6-18.8
		c-1.1-2.4-3.3-4-6.5-4.8c-2.3-0.5-4.8-0.6-7.1-0.7l-0.9,0c-4.4-0.1-8.8-0.5-13.1-1.1c-1-2-0.9-4.5,0.4-6.4c0.7-1.1,1.8-2.1,1.7-3.3
		c-0.1-1.1-1-1.8-1.9-2.3c-1.6-0.9-3.3-1.3-4.8-2.2c-1.6-0.8-3.1-2.1-3.4-3.8c-0.4-1.8,0.6-3.8-0.1-5.5c-0.8-2.1-3.5-2.7-5.7-2.5
		c-1.3,0.1-2.7,0.4-3.9,0.2c-1.3-0.2-2.6-1-2.9-2.3c0,0,0,0.1,0,0.1c0.1-1.9,0.1-3.7-0.1-5.6c-0.2-2.3-1.1-5.2-3.4-6.2
		c-2.2-0.9-4.7,0.4-6.1,2.4c2.6-6.9,4.1-14.7,1.2-21.5c-1.9-4.3-4.3-8.1-8.2-10.8c-4.4-3-6.7-5.1-11.6-7.1
		c-5.7-2.3-13.2-4.9-19.2-5.5c-4-0.5-10.3-1.1-13,1.9c-0.2,0.3-0.5,0.5-0.6,0.9c-0.2,0-0.4-0.1-0.6-0.1c-6.8,0-13.4,3.8-16.8,9.6
		c-0.8,1.4-1.4,2.8-2.3,4c-1.6,2.2-4.2,3.6-5.8,5.7c-1.1,1.5-1.8,3.3-2.4,5c-1.3,3.5-2.6,7.1-3.2,10.7c-0.4,2.1-0.6,4.2-0.3,6.3
		c0.1,1.1,0.5,2.3,0.8,3.4c0.2,0.9,0.6,1.7,1,2.5c-0.1,0.1-0.1,0.2-0.1,0.3c0.4,1,0.9,1.9,1.5,2.8c0.4,0.5,0.7,1,1.1,1.5l0,0.1
		c0.2,0.3,0.4,0.6,0.6,0.9c2.2,3.5,4.3,7.1,6,10.9c-0.5,0.3-1.1,0.6-1.5,0.9c-0.7,0.5-1.5,1-1.9,1.8c-0.4,0.8-0.4,1.8,0.2,2.4
		c1.2,0,2.2,0.8,3.1,1.7c1,2.8,2.3,5.2,4,7.1c0.2,0.2,0.5,0.5,0.6,0.7c-0.2,0.7-0.6,1.3-1.3,1.7c-1.5,1.1-3.6,0.7-5.5,0.5
		c-1.9-0.2-4.2,0.1-4.9,1.8c-0.8,1.9,0.7,4.1,0.1,6c-0.3,1-1.1,1.6-1.8,2.4c-0.7,0.7-1.2,1.7-1,2.7c0.3,1.4,2.1,1.9,2.7,3.2
		c0.5,0.9,0.3,2-0.1,2.8c-0.4,0.9-1,1.7-1.5,2.6c-0.7,1.3-1.2,2.7-0.9,4.2c0.2,1.4,1.3,2.8,2.7,3.1c1.1,0.2,2.2-0.1,3.1,0.5
		c0.6,0.5,0.7,1.5,0.9,2.3c0.1,0.8,0.5,1.8,1.2,2c0.6,0.2,1.3-0.1,1.7-0.7c0.1-0.2,0.3-0.4,0.4-0.6c-0.5,3.4-2.3,6.5-4.2,9.4
		c-1.7,2.7-3.5,5.6-4.1,8.8c-0.6,4.2-1,8.7,1.3,12h0c-1.6,0-3.1,1.4-3.7,2.8c-0.7,1.6-0.5,3.6-0.2,5.2c0,0.3,0.1,0.5,0.1,0.8
		c0.2,1.4,0.5,2.8,0.3,4.2c0,0.4-0.1,0.9-0.2,1.3c-0.1,0.7-0.3,1.4-0.3,2.2c0,2.2,1.5,4.2,4.3,6.1c0.8,0.6,1.6,1,2.4,1.5
		c-0.5,0.3-1,0.8-1.2,1.5c-0.2,0.7-0.2,1.6-0.1,2.2c0.1,1.4,0.5,2.7,1,3.9c0.1,0.2,0.2,0.5,0.5,0.7c0.2,0.1,0.4,0.1,0.6,0.1v0.3h0
		c0.3,3.1,0.3,6.2,0,9.3v-9.3l-0.4,0c0.3,3.1,0.3,6.2,0,9.3l-58.9,2.8l4.9,43.8v0.1c-7.7,9.4-17.2,17.3-27.7,23.4
		c0.5,7.5-2,15.8,2,22.1c1.1,1.8,2.8,3.3,4.5,4.7c7.5,6,16.7,9.3,26,11.5c9.3,2.2,18.8,3.3,28.1,5.1c5.4,1.1,10.8,2.4,16.3,3.1
		c6.4,0.7,12.9,0.5,19.4,0c11.6-1,23-2.8,34.2-5.7l-0.2-0.3l11-9.1c3.2-2.7,4.9-4.7,7.5-7.6l0.7-0.8c0,0,0.1-0.1,0.1-0.1
		c-0.1,0-0.3,0-0.4,0c-0.1,0-0.1,0,0,0c-0.1,0-0.3,0-0.5,0.1c-4.8,0.8-9.6-1.1-13.8-2.6c0.1,0,0.2,0,0.3,0
		c-14.8-4.6-29.5-9.1-44.3-13.7l-22.7-6.9l1.5,0l21.4,6.6c14.9,4.6,29.8,9.2,44.7,13.8l0.2,0c0.1,0,0.2,0,0.2,0.1
		c6-1.1,11.9-2.2,17.9-3.3c2.6-4,5-8.3,7.3-12.6c3.6-6.6,7.3-13.4,11.9-18.8c10.1-11.6,25.6-16.8,41-20.8c5.7-1.5,11.9-3.4,13.9-8.7
		l0.4,0.1c-2.1,5.5-8.4,7.6-14.2,9c-15.3,3.9-30.8,9.1-40.7,20.6c-4.7,5.4-8.3,12.2-11.9,18.8c-3.6,6.6-7.3,13.5-12,18.9l-0.7,0.7
		c-2.6,3-4.3,5-7.6,7.7l-10.9,9.1c0,0.4,0,0.9,0,1.3l-0.1,0.1c-1.8,1.4-3.7,2.7-5.9,3.7c-1.1,0.5-2.4,0.8-3.6,1.1
		c0-0.1,0.1-0.1,0.2-0.2c-1.6-0.8-3.7-0.7-5.4,0c-1.7,0.7-3.2,1.8-4.6,3.1c-2.8,2.6-5.1,5.7-6.8,9.5c-3.3,6-6.4,12.1-9,18.4
		c-2.1,5.1-4,10.4-4.1,15.9c-0.1,5.5,1.7,11.4,6,14.8c2.1,1.7,4.7,2.8,7.3,3.5c2.5,0.6,5.2,0.9,7.6,0.2c2.1-0.6,3.9-2.1,5.4-3.7
		c4.1-4.4,6-10.5,7.7-16.3c0.3-1.1,0.7-2.3,0.5-3.5c-0.1-0.5-0.3-1.1-0.5-1.6c0.5-1.5,0.8-3,1.1-4.5c0.9-3.6,1.7-7.4,3.7-10.5
		c2.5-4,8.4-7.4,12.9-10c0.4,0.2,0.7,0.4,1.1,0.5c0.4,0.1,0.8,0.3,1.2,0.2c0.5-0.1,0.7-0.6,1-1c1.9-2.9,5-4.6,8.1-6.3l0,0
		c0.2,0.3,0.4,0.7,0.6,1.1c1.6,5.7,3.8,11.3,6.4,16.7c1.7,3.5,3.6,6.9,6.6,9.4c3,2.5,7.1,3.8,10.7,2.4c2.4-0.9,4.2-2.7,5.7-4.8
		c4.3-6,5.7-13.9,4.6-21.3c-1.1-7.4-4.4-14.2-8.7-20.3c-0.1,0-0.1,0-0.2,0c8.5-6.4,16.7-13.2,25.1-19.6
		c16.5-12.6,34.4-24.1,46.9-40.8c4.1-5.4,7.5-11.4,10.5-17.5C344.6,221.8,345.1,220.7,345,219.6z M204.3,65.4
		C204.3,65.4,204.3,65.5,204.3,65.4L204.3,65.4z M239.2,70.6L239.2,70.6L239.2,70.6z M260.6,301.6L260.6,301.6
		C260.6,301.6,260.6,301.6,260.6,301.6C260.6,301.5,260.6,301.6,260.6,301.6z"/>
</mask>
<path class="st5" d="M345,219.6c-0.1-1.2-0.9-2.3-1.6-3.2c-5.2-6.4-12.7-11.4-20.9-11.7c-6-0.2-11.8,2-17.5,4.2h-0.1
	c0.8-5.3,1.6-10.5,2.5-15.8h0.2c1.5-0.2,2.9-1,3.9-2.3c1-1.2,1.4-2.7,1.3-4.1l0,0c1.1-1.1,1.9-2.4,2.6-3.7c2.1-3.6,4.3-7.3,5.3-11.5
	c1.1-4.7,0.3-9.2-2.2-12.2c-0.2-0.3-0.4-0.5-0.6-0.7c-0.5-0.6-1-1.1-1.3-1.7c-0.5-0.8-0.6-2,0-2.7c0.2-0.2,0.5-0.5,0.8-0.7
	c0.5-0.4,1.1-0.8,1.2-1.6c0-0.8-0.6-1.4-1.1-1.9c-4.6-4.1-5.2-10.9-5.7-16.9c-0.6-6.7-1.5-14.5-3.9-21.9
	c-2.5-7.7-6.5-14.3-11.6-18.8c-1.1-2.4-3.3-4-6.5-4.8c-2.3-0.5-4.8-0.6-7.1-0.7l-0.9,0c-4.4-0.1-8.8-0.5-13.1-1.1
	c-1-2-0.9-4.5,0.4-6.4c0.7-1.1,1.8-2.1,1.7-3.3c-0.1-1.1-1-1.8-1.9-2.3c-1.6-0.9-3.3-1.3-4.8-2.2c-1.6-0.8-3.1-2.1-3.4-3.8
	c-0.4-1.8,0.6-3.8-0.1-5.5c-0.8-2.1-3.5-2.7-5.7-2.5c-1.3,0.1-2.7,0.4-3.9,0.2c-1.3-0.2-2.6-1-2.9-2.3c0,0,0,0.1,0,0.1
	c0.1-1.9,0.1-3.7-0.1-5.6c-0.2-2.3-1.1-5.2-3.4-6.2c-2.2-0.9-4.7,0.4-6.1,2.4c2.6-6.9,4.1-14.7,1.2-21.5c-1.9-4.3-4.3-8.1-8.2-10.8
	c-4.4-3-6.7-5.1-11.6-7.1c-5.7-2.3-13.2-4.9-19.2-5.5c-4-0.5-10.3-1.1-13,1.9c-0.2,0.3-0.5,0.5-0.6,0.9c-0.2,0-0.4-0.1-0.6-0.1
	c-6.8,0-13.4,3.8-16.8,9.6c-0.8,1.4-1.4,2.8-2.3,4c-1.6,2.2-4.2,3.6-5.8,5.7c-1.1,1.5-1.8,3.3-2.4,5c-1.3,3.5-2.6,7.1-3.2,10.7
	c-0.4,2.1-0.6,4.2-0.3,6.3c0.1,1.1,0.5,2.3,0.8,3.4c0.2,0.9,0.6,1.7,1,2.5c-0.1,0.1-0.1,0.2-0.1,0.3c0.4,1,0.9,1.9,1.5,2.8
	c0.4,0.5,0.7,1,1.1,1.5l0,0.1c0.2,0.3,0.4,0.6,0.6,0.9c2.2,3.5,4.3,7.1,6,10.9c-0.5,0.3-1.1,0.6-1.5,0.9c-0.7,0.5-1.5,1-1.9,1.8
	c-0.4,0.8-0.4,1.8,0.2,2.4c1.2,0,2.2,0.8,3.1,1.7c1,2.8,2.3,5.2,4,7.1c0.2,0.2,0.5,0.5,0.6,0.7c-0.2,0.7-0.6,1.3-1.3,1.7
	c-1.5,1.1-3.6,0.7-5.5,0.5c-1.9-0.2-4.2,0.1-4.9,1.8c-0.8,1.9,0.7,4.1,0.1,6c-0.3,1-1.1,1.6-1.8,2.4c-0.7,0.7-1.2,1.7-1,2.7
	c0.3,1.4,2.1,1.9,2.7,3.2c0.5,0.9,0.3,2-0.1,2.8c-0.4,0.9-1,1.7-1.5,2.6c-0.7,1.3-1.2,2.7-0.9,4.2c0.2,1.4,1.3,2.8,2.7,3.1
	c1.1,0.2,2.2-0.1,3.1,0.5c0.6,0.5,0.7,1.5,0.9,2.3c0.1,0.8,0.5,1.8,1.2,2c0.6,0.2,1.3-0.1,1.7-0.7c0.1-0.2,0.3-0.4,0.4-0.6
	c-0.5,3.4-2.3,6.5-4.2,9.4c-1.7,2.7-3.5,5.6-4.1,8.8c-0.6,4.2-1,8.7,1.3,12h0c-1.6,0-3.1,1.4-3.7,2.8c-0.7,1.6-0.5,3.6-0.2,5.2
	c0,0.3,0.1,0.5,0.1,0.8c0.2,1.4,0.5,2.8,0.3,4.2c0,0.4-0.1,0.9-0.2,1.3c-0.1,0.7-0.3,1.4-0.3,2.2c0,2.2,1.5,4.2,4.3,6.1
	c0.8,0.6,1.6,1,2.4,1.5c-0.5,0.3-1,0.8-1.2,1.5c-0.2,0.7-0.2,1.6-0.1,2.2c0.1,1.4,0.5,2.7,1,3.9c0.1,0.2,0.2,0.5,0.5,0.7
	c0.2,0.1,0.4,0.1,0.6,0.1v0.3h0c0.3,3.1,0.3,6.2,0,9.3v-9.3l-0.4,0c0.3,3.1,0.3,6.2,0,9.3l-58.9,2.8l4.9,43.8v0.1
	c-7.7,9.4-17.2,17.3-27.7,23.4c0.5,7.5-2,15.8,2,22.1c1.1,1.8,2.8,3.3,4.5,4.7c7.5,6,16.7,9.3,26,11.5c9.3,2.2,18.8,3.3,28.1,5.1
	c5.4,1.1,10.8,2.4,16.3,3.1c6.4,0.7,12.9,0.5,19.4,0c11.6-1,23-2.8,34.2-5.7l-0.2-0.3l11-9.1c3.2-2.7,4.9-4.7,7.5-7.6l0.7-0.8
	c0,0,0.1-0.1,0.1-0.1c-0.1,0-0.3,0-0.4,0c-0.1,0-0.1,0,0,0c-0.1,0-0.3,0-0.5,0.1c-4.8,0.8-9.6-1.1-13.8-2.6c0.1,0,0.2,0,0.3,0
	c-14.8-4.6-29.5-9.1-44.3-13.7l-22.7-6.9l1.5,0l21.4,6.6c14.9,4.6,29.8,9.2,44.7,13.8l0.2,0c0.1,0,0.2,0,0.2,0.1
	c6-1.1,11.9-2.2,17.9-3.3c2.6-4,5-8.3,7.3-12.6c3.6-6.6,7.3-13.4,11.9-18.8c10.1-11.6,25.6-16.8,41-20.8c5.7-1.5,11.9-3.4,13.9-8.7
	l0.4,0.1c-2.1,5.5-8.4,7.6-14.2,9c-15.3,3.9-30.8,9.1-40.7,20.6c-4.7,5.4-8.3,12.2-11.9,18.8c-3.6,6.6-7.3,13.5-12,18.9l-0.7,0.7
	c-2.6,3-4.3,5-7.6,7.7l-10.9,9.1c0,0.4,0,0.9,0,1.3l-0.1,0.1c-1.8,1.4-3.7,2.7-5.9,3.7c-1.1,0.5-2.4,0.8-3.6,1.1
	c0-0.1,0.1-0.1,0.2-0.2c-1.6-0.8-3.7-0.7-5.4,0c-1.7,0.7-3.2,1.8-4.6,3.1c-2.8,2.6-5.1,5.7-6.8,9.5c-3.3,6-6.4,12.1-9,18.4
	c-2.1,5.1-4,10.4-4.1,15.9c-0.1,5.5,1.7,11.4,6,14.8c2.1,1.7,4.7,2.8,7.3,3.5c2.5,0.6,5.2,0.9,7.6,0.2c2.1-0.6,3.9-2.1,5.4-3.7
	c4.1-4.4,6-10.5,7.7-16.3c0.3-1.1,0.7-2.3,0.5-3.5c-0.1-0.5-0.3-1.1-0.5-1.6c0.5-1.5,0.8-3,1.1-4.5c0.9-3.6,1.7-7.4,3.7-10.5
	c2.5-4,8.4-7.4,12.9-10c0.4,0.2,0.7,0.4,1.1,0.5c0.4,0.1,0.8,0.3,1.2,0.2c0.5-0.1,0.7-0.6,1-1c1.9-2.9,5-4.6,8.1-6.3l0,0
	c0.2,0.3,0.4,0.7,0.6,1.1c1.6,5.7,3.8,11.3,6.4,16.7c1.7,3.5,3.6,6.9,6.6,9.4c3,2.5,7.1,3.8,10.7,2.4c2.4-0.9,4.2-2.7,5.7-4.8
	c4.3-6,5.7-13.9,4.6-21.3c-1.1-7.4-4.4-14.2-8.7-20.3c-0.1,0-0.1,0-0.2,0c8.5-6.4,16.7-13.2,25.1-19.6
	c16.5-12.6,34.4-24.1,46.9-40.8c4.1-5.4,7.5-11.4,10.5-17.5C344.6,221.8,345.1,220.7,345,219.6z M204.3,65.4
	C204.3,65.4,204.3,65.5,204.3,65.4L204.3,65.4z M239.2,70.6L239.2,70.6L239.2,70.6z M260.6,301.6L260.6,301.6
	C260.6,301.6,260.6,301.6,260.6,301.6C260.6,301.5,260.6,301.6,260.6,301.6z"/>
<path class="st2" d="M213.5,302.6v-1.5H212h0l0,0l0,0l0,0h0l0,0l0,0h0l0,0l0,0l0,0h0l0,0l0,0l0,0h0l0,0l0,0h0l0,0l0,0l0,0h0l0,0l0,0
	l0,0h0l0,0l0,0h0l0,0l0,0l0,0h0l0,0l0,0l0,0h0l0,0l0,0h0l0,0l0,0l0,0h0l0,0l0,0l0,0h0l0,0l0,0l0,0h0l0,0l0,0h0l0,0l0,0l0,0h0l0,0
	l0,0l0,0h0l0,0l0,0l0,0h0l0,0l0,0h0l0,0l0,0l0,0h0l0,0l0,0l0,0h0l0,0l0,0l0,0h0l0,0l0,0h0l0,0l0,0l0,0h0l0,0l0,0l0,0h0l0,0l0,0l0,0
	h0l0,0l0,0l0,0h0l0,0l0,0h0l0,0l0,0l0,0h0l0,0l0,0l0,0h0l0,0l0,0l0,0h0l0,0l0,0l0,0h0l0,0l0,0l0,0h0l0,0l0,0l0,0h0l0,0l0,0l0,0h0
	l0,0l0,0l0,0h0l0,0l0,0l0,0h0l0,0l0,0l0,0h0l0,0l0,0l0,0h0l0,0l0,0l0,0h0l0,0l0,0l0,0h0l0,0l0,0l0,0h0l0,0l0,0l0,0h0l0,0l0,0l0,0h0
	l0,0l0,0l0,0h0l0,0l0,0l0,0h0l0,0l0,0l0,0h0l0,0l0,0l0,0l0,0h0l0,0l0,0l0,0h0l0,0l0,0l0,0h0l0,0l0,0l0,0l0,0h0l0,0l0,0l0,0h0l0,0
	l0,0l0,0h0l0,0l0,0l0,0l0,0h0l0,0l0,0l0,0h0l0,0l0,0l0,0l0,0h0l0,0l0,0l0,0h0l0,0l0,0l0,0l0,0h0l0,0l0,0l0,0h0l0,0l0,0l0,0l0,0h0
	l0,0l0,0l0,0l0,0h0l0,0l0,0l0,0l0,0h0l0,0l0,0l0,0h0l0,0l0,0l0,0l0,0h0l0,0l0,0l0,0l0,0h0l0,0l0,0l0,0l0,0h0l0,0l0,0l0,0l0,0h0l0,0
	l0,0l0,0l0,0l0,0h0l0,0l0,0l0,0l0,0h0l0,0l0,0l0,0l0,0h0l0,0l0,0l0,0l0,0l0,0h0l0,0l0,0l0,0l0,0h0l0,0l0,0l0,0l0,0l0,0h0l0,0l0,0
	l0,0l0,0l0,0h0l0,0l0,0l0,0l0,0l0,0h0l0,0l0,0l0,0l0,0l0,0h0l0,0l0,0l0,0l0,0l0,0h0l0,0l0,0l0,0l0,0l0,0h0l0,0l0,0l0,0l0,0l0,0l0,0
	h0l0,0l0,0l0,0l0,0l0,0l0,0h0l0,0l0,0l0,0l0,0l0,0l0,0h0l0,0l0,0l0,0l0,0l0,0l0,0h0l0,0l0,0l0,0l0,0l0,0l0,0h0l0,0l0,0l0,0l0,0l0,0
	l0,0l0,0h0l0,0l0,0l0,0l0,0l0,0l0,0l0,0l0,0h0l0,0l0,0l0,0l0,0l0,0l0,0l0,0l0,0h0l0,0l0,0l0,0l0,0l0,0l0,0l0,0l0,0h0l0,0l0,0l0,0
	l0,0l0,0l0,0l0,0l0,0l0,0h0l0,0l0,0l0,0l0,0l0,0l0,0l0,0l0,0l0,0l0,0l0,0h0l0,0l0,0l0,0l0,0l0,0l0,0l0,0l0,0l0,0l0,0l0,0l0,0h0l0,0
	l0,0l0,0l0,0l0,0l0,0l0,0l0,0l0,0l0,0l0,0l0,0l0,0l0,0l0,0h0l0,0l0,0l0,0l0,0l0,0l0,0l0,0l0,0l0,0l0,0l0,0l0,0l0,0l0,0l0,0l0,0l0,0
	l0,0l0,0l0,0l0,0h0l0,0l0,0l0,0l0,0l0,0l0,0l0,0l0,0l0,0l0,0l0,0l0,0l0,0l0,0l0,0l0,0l0,0l0,0l0,0l0,0l0,0l0,0l0,0l0,0l0,0l0,0l0,0
	l0,0l0,0l0,0l0,0l0,0h-2.4l1.1,2.2l0,0.1l0.9,1.9l1.5-1.5l0,0l0.4-0.4V302.6L213.5,302.6z"/>
<path class="st3" d="M204.3,65.5C204.3,65.4,204.3,65.5,204.3,65.5C204.3,65.4,204.3,65.4,204.3,65.5z"/>
<defs>
	
		<filter id="Adobe_OpacityMaskFilter_00000017480593164243504550000001267397062678584241_" filterUnits="userSpaceOnUse" x="201.3" y="62.5" width="10.3" height="6">
		<feColorMatrix  type="matrix" values="1 0 0 0 0  0 1 0 0 0  0 0 1 0 0  0 0 0 1 0"/>
	</filter>
</defs>
<mask maskUnits="userSpaceOnUse" x="201.3" y="62.5" width="10.3" height="6" id="path-6-outside-2_1124_1134_00000051359026526803368720000013921079228986152120_">
	
		<rect x="201.3" y="62.5" style="fill:#FFFFFF;filter:url(#Adobe_OpacityMaskFilter_00000017480593164243504550000001267397062678584241_);" width="11" height="7"/>
	<path d="M204.3,65.5C204.3,65.4,204.3,65.5,204.3,65.5C204.3,65.4,204.3,65.4,204.3,65.5z"/>
</mask>
<path class="st7" d="M204.3,65.5v3h7.2l-5.1-5.1L204.3,65.5z M204.3,62.5c0.5,0,1,0.1,1.6,0.4c0.3,0.2,0.5,0.4,0.8,0.7
	c0.2,0.3,0.6,0.9,0.6,1.8c0,0.5-0.1,1.1-0.6,1.7c-0.4,0.6-1,1-1.5,1.1c-0.9,0.3-1.7,0-1.9-0.1c-0.6-0.2-0.9-0.6-1-0.7l4.2-4.2
	c-0.1-0.1-0.5-0.5-1.1-0.7c-0.2-0.1-1-0.4-2-0.1c-0.5,0.2-1.1,0.5-1.6,1.1c-0.4,0.6-0.6,1.2-0.6,1.7c0,0.9,0.4,1.6,0.6,1.8
	c0.3,0.3,0.5,0.6,0.8,0.7c0.5,0.3,1.1,0.5,1.6,0.5V62.5z M206.4,63.4C206.4,63.4,206.5,63.4,206.4,63.4
	C206.4,63.4,206.5,63.4,206.4,63.4C206.4,63.4,206.4,63.4,206.4,63.4C206.4,63.4,206.4,63.4,206.4,63.4
	C206.4,63.4,206.5,63.4,206.4,63.4C206.3,63.2,206.6,63.5,206.4,63.4C206.4,63.4,206.4,63.4,206.4,63.4
	C206.4,63.4,206.4,63.4,206.4,63.4C206.4,63.4,206.4,63.4,206.4,63.4C206.4,63.4,206.4,63.4,206.4,63.4
	C206.4,63.3,206.5,63.4,206.4,63.4C206.3,63.2,206.6,63.5,206.4,63.4C206.4,63.4,206.4,63.4,206.4,63.4
	C206.4,63.4,206.4,63.4,206.4,63.4C206.4,63.4,206.4,63.4,206.4,63.4C206.4,63.4,206.4,63.4,206.4,63.4
	C206.4,63.4,206.4,63.4,206.4,63.4C206.4,63.4,206.4,63.4,206.4,63.4C206.3,63.2,206.6,63.5,206.4,63.4
	C206.4,63.4,206.4,63.4,206.4,63.4C206.4,63.4,206.4,63.4,206.4,63.4C206.4,63.4,206.4,63.4,206.4,63.4
	C206.4,63.4,206.4,63.4,206.4,63.4C206.4,63.4,206.4,63.4,206.4,63.4C206.4,63.4,206.4,63.4,206.4,63.4
	C206.4,63.3,206.5,63.4,206.4,63.4C206.4,63.3,206.5,63.4,206.4,63.4C206.4,63.4,206.4,63.4,206.4,63.4
	C206.4,63.4,206.4,63.4,206.4,63.4C206.4,63.4,206.4,63.4,206.4,63.4C206.4,63.4,206.4,63.4,206.4,63.4
	C206.4,63.4,206.4,63.4,206.4,63.4C206.4,63.4,206.4,63.4,206.4,63.4C206.3,63.3,206.5,63.5,206.4,63.4
	C206.4,63.4,206.4,63.4,206.4,63.4C206.4,63.4,206.4,63.4,206.4,63.4C206.4,63.4,206.4,63.4,206.4,63.4
	C206.4,63.4,206.4,63.4,206.4,63.4C206.4,63.4,206.4,63.4,206.4,63.4C206.4,63.4,206.4,63.4,206.4,63.4
	C206.4,63.4,206.4,63.4,206.4,63.4C206.4,63.4,206.4,63.4,206.4,63.4C206.4,63.3,206.5,63.4,206.4,63.4
	C206.4,63.4,206.4,63.4,206.4,63.4C206.4,63.4,206.4,63.4,206.4,63.4C206.4,63.4,206.4,63.4,206.4,63.4
	C206.4,63.4,206.4,63.4,206.4,63.4C206.3,63.2,206.6,63.5,206.4,63.4C206.4,63.3,206.5,63.4,206.4,63.4
	C206.4,63.3,206.4,63.3,206.4,63.4C206.4,63.3,206.4,63.3,206.4,63.4C206.4,63.3,206.4,63.3,206.4,63.4
	C206.4,63.3,206.4,63.3,206.4,63.4C206.3,63.3,206.5,63.4,206.4,63.4L206.4,63.4C206.4,63.3,206.4,63.3,206.4,63.4
	C206.3,63.3,206.5,63.4,206.4,63.4C206.4,63.3,206.4,63.3,206.4,63.4C206.4,63.3,206.4,63.3,206.4,63.4
	C206.4,63.3,206.4,63.3,206.4,63.4L206.4,63.4C206.4,63.3,206.4,63.4,206.4,63.4C206.4,63.3,206.4,63.3,206.4,63.4
	C206.4,63.3,206.4,63.3,206.4,63.4C206.4,63.3,206.5,63.4,206.4,63.4C206.4,63.3,206.4,63.3,206.4,63.4L206.4,63.4
	C206.4,63.3,206.4,63.3,206.4,63.4C206.4,63.3,206.4,63.3,206.4,63.4C206.3,63.2,206.6,63.5,206.4,63.4
	C206.4,63.3,206.4,63.3,206.4,63.4C206.4,63.3,206.4,63.3,206.4,63.4L206.4,63.4C206.4,63.3,206.4,63.3,206.4,63.4
	C206.3,63.2,206.6,63.5,206.4,63.4C206.3,63.2,206.5,63.4,206.4,63.4C206.3,63.2,206.5,63.4,206.4,63.4
	C206.4,63.3,206.4,63.3,206.4,63.4C206.4,63.3,206.4,63.3,206.4,63.4C206.3,63.3,206.5,63.4,206.4,63.4
	C206.4,63.3,206.4,63.3,206.4,63.4L206.4,63.4C206.3,63.2,206.5,63.4,206.4,63.4C206.4,63.3,206.5,63.4,206.4,63.4
	C206.3,63.3,206.5,63.4,206.4,63.4L206.4,63.4L206.4,63.4C206.4,63.3,206.5,63.4,206.4,63.4C206.4,63.3,206.4,63.3,206.4,63.4
	C206.4,63.3,206.4,63.3,206.4,63.4C206.4,63.3,206.4,63.3,206.4,63.4C206.4,63.3,206.4,63.3,206.4,63.4
	C206.4,63.3,206.4,63.3,206.4,63.4C206.4,63.3,206.4,63.3,206.4,63.4C206.4,63.3,206.4,63.3,206.4,63.4
	C206.4,63.3,206.4,63.3,206.4,63.4C206.3,63.3,206.5,63.4,206.4,63.4C206.3,63.2,206.5,63.5,206.4,63.4
	C206.3,63.3,206.5,63.4,206.4,63.4L206.4,63.4L206.4,63.4C206.4,63.3,206.4,63.3,206.4,63.4C206.4,63.3,206.4,63.3,206.4,63.4
	C206.3,63.3,206.5,63.4,206.4,63.4C206.3,63.3,206.5,63.4,206.4,63.4C206.4,63.3,206.4,63.3,206.4,63.4L206.4,63.4
	C206.4,63.3,206.4,63.3,206.4,63.4L206.4,63.4C206.4,63.3,206.4,63.3,206.4,63.4L206.4,63.4C206.4,63.3,206.4,63.3,206.4,63.4
	L206.4,63.4C206.4,63.3,206.4,63.3,206.4,63.4C206.4,63.3,206.4,63.3,206.4,63.4L206.4,63.4C206.4,63.3,206.4,63.3,206.4,63.4
	L206.4,63.4L206.4,63.4C206.3,63.2,206.5,63.5,206.4,63.4C206.4,63.3,206.4,63.3,206.4,63.4L206.4,63.4
	C206.3,63.2,206.6,63.5,206.4,63.4L206.4,63.4C206.4,63.3,206.4,63.3,206.4,63.4L206.4,63.4C206.4,63.3,206.4,63.3,206.4,63.4
	C206.4,63.3,206.4,63.3,206.4,63.4C206.4,63.3,206.4,63.3,206.4,63.4L206.4,63.4C206.4,63.3,206.4,63.3,206.4,63.4L206.4,63.4
	L206.4,63.4C206.3,63.2,206.6,63.5,206.4,63.4L206.4,63.4L206.4,63.4L206.4,63.4C206.4,63.3,206.4,63.3,206.4,63.4L206.4,63.4
	C206.4,63.3,206.4,63.3,206.4,63.4L206.4,63.4L206.4,63.4C206.4,63.3,206.4,63.3,206.4,63.4L206.4,63.4L206.4,63.4L206.4,63.4
	L206.4,63.4L206.4,63.4L206.4,63.4L206.4,63.4L206.4,63.4L206.4,63.4L206.4,63.4L206.4,63.4L206.4,63.4
	C206.4,63.3,206.4,63.3,206.4,63.4L206.4,63.4C206.4,63.3,206.4,63.3,206.4,63.4L206.4,63.4L206.4,63.4L206.4,63.4L206.4,63.4
	L206.4,63.4L206.4,63.4C206.4,63.3,206.4,63.3,206.4,63.4L206.4,63.4L206.4,63.4L206.4,63.4L206.4,63.4c0,0,0,0-2.2,2.1
	c-2.1,2.1-2.1,2.1-2.1,2.1l0,0l0,0c0,0,0,0,0,0l0,0l0,0l0,0l0,0l0,0l0,0l0,0l0,0l0,0c0,0,0,0,0,0l0,0l0,0l0,0l0,0l0,0c0,0,0,0,0,0
	l0,0l0,0l0,0c0,0,0,0,0,0l0,0l0,0c0,0,0,0,0,0l0,0l0,0c0,0,0,0,0,0l0,0h0c0,0,0,0,0,0l0,0l0,0c0,0,0,0,0,0c0.1,0.1-0.1-0.1,0,0l0,0
	l0,0c0,0,0,0,0,0l0,0c0,0,0,0,0,0l0,0c0,0,0,0,0,0l0,0c0,0,0,0,0,0l0,0c0.2,0.2-0.2-0.2,0,0h0c0,0,0,0,0,0s0,0,0,0l0,0v0
	c0,0,0,0,0,0l0,0v0c0,0,0,0,0,0l0,0v0c0,0,0,0,0,0l0,0c0,0,0,0,0,0v0c0,0,0,0,0,0c0,0,0,0,0,0c0,0,0,0,0,0v0c0.1,0.1-0.1-0.1,0,0
	c0.1,0.1-0.1-0.1,0,0c0,0,0,0,0,0c0,0,0,0,0,0c0,0,0,0,0,0c0,0,0,0,0,0c0,0,0,0,0,0c0,0,0,0,0,0c0,0,0,0,0,0c0,0,0,0,0,0
	c0,0,0,0,0,0c0,0,0,0,0,0c0,0,0,0,0,0c0,0,0,0,0,0v0v0c0,0,0,0,0,0c0,0,0,0,0,0c0,0,0,0,0,0v0c0,0,0,0,0,0c0,0,0,0,0,0v0v0
	c0,0,0,0,0,0c0,0,0,0,0,0c0.1,0.1-0.1-0.1,0,0c0,0,0,0,0,0v0c0,0,0,0,0,0v0c0,0,0,0,0,0c0,0,0,0,0,0v0c0,0,0,0,0,0
	c0.1,0.1-0.1-0.1,0,0c0,0,0,0,0,0c0,0,0,0,0,0c0,0,0,0,0,0c0,0,0,0,0,0v0c0,0,0,0,0,0c0.1,0.1-0.1-0.1,0,0c0.1,0.1-0.1-0.1,0,0
	c0,0,0,0,0,0v0c0,0,0,0,0,0c0,0,0,0,0,0c0,0,0,0,0,0c0.1,0.1-0.1-0.1,0,0c0.1,0.1,0-0.1,0,0c0.1,0.1-0.1-0.1,0,0
	c0.1,0.1-0.1-0.1,0,0c0,0,0,0,0,0c0,0,0,0,0,0v0c0,0,0,0,0,0c0,0,0,0,0,0c0,0,0,0,0,0c0,0,0,0,0,0c0.1,0.1-0.1-0.1,0,0
	c0.1,0.1-0.1-0.1,0,0c0.1,0.1-0.1-0.1,0,0c0,0,0,0,0,0c0,0,0,0,0,0c0.1,0.1-0.1-0.1,0,0c0,0,0,0,0,0c0,0,0,0,0,0s0,0,0,0s0,0,0,0
	c0,0,0,0,0,0c0,0,0,0,0,0c0,0,0,0,0,0s0,0,0,0c0,0,0,0,0,0s0,0,0,0c0,0,0,0,0,0c0,0,0,0,0,0c0,0,0,0,0,0c0,0,0,0,0,0c0,0,0,0,0,0
	s0,0,0,0c0,0,0,0,0,0c0,0,0,0,0,0c0,0,0,0,0,0s0,0,0,0c0,0,0,0,0,0s0,0,0,0c0,0,0,0,0,0c0,0,0,0,0,0c0,0,0,0,0,0c0,0,0,0,0,0
	s0,0,0,0c0,0,0,0,0,0s0,0,0,0c0,0,0,0,0,0c0,0,0,0,0,0c0,0,0,0,0,0s0,0,0,0c0,0,0,0,0,0c0,0,0,0,0,0c0,0,0,0,0,0s0,0,0,0
	c0,0,0,0,0,0s0,0,0,0s0,0,0,0c0,0,0,0,0,0c0.1,0.1-0.1-0.1,0,0c0.1,0.1-0.1-0.1,0,0c0.1,0.1-0.1-0.1,0,0c0,0,0,0,0,0s0,0,0,0
	c0,0,0,0,0,0c0,0,0,0,0,0c0,0,0,0,0,0c0.1,0.1-0.1-0.1,0,0c0.1,0.1-0.1-0.1,0,0L206.4,63.4C206.4,63.4,206.5,63.4,206.4,63.4
	C206.4,63.4,206.5,63.4,206.4,63.4C206.4,63.4,206.4,63.4,206.4,63.4C206.4,63.4,206.4,63.4,206.4,63.4
	C206.4,63.4,206.5,63.4,206.4,63.4C206.3,63.2,206.6,63.5,206.4,63.4C206.4,63.4,206.4,63.4,206.4,63.4
	C206.4,63.4,206.4,63.4,206.4,63.4C206.4,63.4,206.4,63.4,206.4,63.4C206.4,63.4,206.4,63.4,206.4,63.4
	C206.4,63.3,206.5,63.4,206.4,63.4C206.3,63.2,206.6,63.5,206.4,63.4C206.4,63.4,206.4,63.4,206.4,63.4
	C206.4,63.4,206.4,63.4,206.4,63.4C206.4,63.4,206.4,63.4,206.4,63.4C206.4,63.4,206.4,63.4,206.4,63.4
	C206.4,63.4,206.4,63.4,206.4,63.4C206.4,63.4,206.4,63.4,206.4,63.4C206.3,63.2,206.6,63.5,206.4,63.4
	C206.4,63.4,206.4,63.4,206.4,63.4C206.4,63.4,206.4,63.4,206.4,63.4C206.4,63.4,206.4,63.4,206.4,63.4
	C206.4,63.4,206.4,63.4,206.4,63.4C206.4,63.4,206.4,63.4,206.4,63.4C206.4,63.4,206.4,63.4,206.4,63.4
	C206.4,63.3,206.5,63.4,206.4,63.4C206.4,63.3,206.5,63.4,206.4,63.4C206.4,63.4,206.4,63.4,206.4,63.4
	C206.4,63.4,206.4,63.4,206.4,63.4C206.4,63.4,206.4,63.4,206.4,63.4C206.4,63.4,206.4,63.4,206.4,63.4
	C206.4,63.4,206.4,63.4,206.4,63.4C206.4,63.4,206.4,63.4,206.4,63.4C206.3,63.3,206.5,63.5,206.4,63.4
	C206.4,63.4,206.4,63.4,206.4,63.4C206.4,63.4,206.4,63.4,206.4,63.4C206.4,63.4,206.4,63.4,206.4,63.4
	C206.4,63.4,206.4,63.4,206.4,63.4C206.4,63.4,206.4,63.4,206.4,63.4C206.4,63.4,206.4,63.4,206.4,63.4
	C206.4,63.4,206.4,63.4,206.4,63.4C206.4,63.4,206.4,63.4,206.4,63.4C206.4,63.3,206.5,63.4,206.4,63.4
	C206.4,63.4,206.4,63.4,206.4,63.4C206.4,63.4,206.4,63.4,206.4,63.4C206.4,63.4,206.4,63.4,206.4,63.4
	C206.4,63.4,206.4,63.4,206.4,63.4C206.3,63.2,206.6,63.5,206.4,63.4C206.4,63.3,206.5,63.4,206.4,63.4
	C206.4,63.3,206.4,63.3,206.4,63.4C206.4,63.3,206.4,63.3,206.4,63.4C206.4,63.3,206.4,63.3,206.4,63.4
	C206.4,63.3,206.4,63.3,206.4,63.4C206.3,63.3,206.5,63.4,206.4,63.4L206.4,63.4C206.4,63.3,206.4,63.3,206.4,63.4
	C206.3,63.3,206.5,63.4,206.4,63.4C206.4,63.3,206.4,63.3,206.4,63.4C206.4,63.3,206.4,63.3,206.4,63.4
	C206.4,63.3,206.4,63.3,206.4,63.4L206.4,63.4C206.4,63.3,206.4,63.4,206.4,63.4C206.4,63.3,206.4,63.3,206.4,63.4
	C206.4,63.3,206.4,63.3,206.4,63.4C206.4,63.3,206.5,63.4,206.4,63.4C206.4,63.3,206.4,63.3,206.4,63.4L206.4,63.4
	C206.4,63.3,206.4,63.3,206.4,63.4C206.4,63.3,206.4,63.3,206.4,63.4C206.3,63.2,206.6,63.5,206.4,63.4
	C206.4,63.3,206.4,63.3,206.4,63.4C206.4,63.3,206.4,63.3,206.4,63.4L206.4,63.4C206.4,63.3,206.4,63.3,206.4,63.4
	C206.3,63.2,206.6,63.5,206.4,63.4C206.3,63.2,206.5,63.4,206.4,63.4C206.3,63.2,206.5,63.4,206.4,63.4
	C206.4,63.3,206.4,63.3,206.4,63.4C206.4,63.3,206.4,63.3,206.4,63.4C206.3,63.3,206.5,63.4,206.4,63.4
	C206.4,63.3,206.4,63.3,206.4,63.4L206.4,63.4C206.3,63.2,206.5,63.4,206.4,63.4C206.4,63.3,206.5,63.4,206.4,63.4
	C206.3,63.3,206.5,63.4,206.4,63.4L206.4,63.4L206.4,63.4C206.4,63.3,206.5,63.4,206.4,63.4C206.4,63.3,206.4,63.3,206.4,63.4
	C206.4,63.3,206.4,63.3,206.4,63.4C206.4,63.3,206.4,63.3,206.4,63.4C206.4,63.3,206.4,63.3,206.4,63.4
	C206.4,63.3,206.4,63.3,206.4,63.4C206.4,63.3,206.4,63.3,206.4,63.4C206.4,63.3,206.4,63.3,206.4,63.4
	C206.4,63.3,206.4,63.3,206.4,63.4C206.3,63.3,206.5,63.4,206.4,63.4C206.3,63.2,206.5,63.5,206.4,63.4
	C206.3,63.3,206.5,63.4,206.4,63.4L206.4,63.4L206.4,63.4C206.4,63.3,206.4,63.3,206.4,63.4C206.4,63.3,206.4,63.3,206.4,63.4
	C206.3,63.3,206.5,63.4,206.4,63.4C206.3,63.3,206.5,63.4,206.4,63.4C206.4,63.3,206.4,63.3,206.4,63.4L206.4,63.4
	C206.4,63.3,206.4,63.3,206.4,63.4L206.4,63.4C206.4,63.3,206.4,63.3,206.4,63.4L206.4,63.4C206.4,63.3,206.4,63.3,206.4,63.4
	L206.4,63.4C206.4,63.3,206.4,63.3,206.4,63.4C206.4,63.3,206.4,63.3,206.4,63.4L206.4,63.4C206.4,63.3,206.4,63.3,206.4,63.4
	L206.4,63.4L206.4,63.4C206.3,63.2,206.5,63.5,206.4,63.4C206.4,63.3,206.4,63.3,206.4,63.4L206.4,63.4
	C206.3,63.2,206.6,63.5,206.4,63.4L206.4,63.4C206.4,63.3,206.4,63.3,206.4,63.4L206.4,63.4C206.4,63.3,206.4,63.3,206.4,63.4
	C206.4,63.3,206.4,63.3,206.4,63.4C206.4,63.3,206.4,63.3,206.4,63.4L206.4,63.4C206.4,63.3,206.4,63.3,206.4,63.4L206.4,63.4
	L206.4,63.4C206.3,63.2,206.6,63.5,206.4,63.4L206.4,63.4L206.4,63.4L206.4,63.4C206.4,63.3,206.4,63.3,206.4,63.4L206.4,63.4
	C206.4,63.3,206.4,63.3,206.4,63.4L206.4,63.4L206.4,63.4C206.4,63.3,206.4,63.3,206.4,63.4L206.4,63.4L206.4,63.4L206.4,63.4
	L206.4,63.4L206.4,63.4L206.4,63.4L206.4,63.4L206.4,63.4L206.4,63.4L206.4,63.4L206.4,63.4L206.4,63.4
	C206.4,63.3,206.4,63.3,206.4,63.4L206.4,63.4C206.4,63.3,206.4,63.3,206.4,63.4L206.4,63.4L206.4,63.4L206.4,63.4L206.4,63.4
	L206.4,63.4L206.4,63.4C206.4,63.3,206.4,63.3,206.4,63.4L206.4,63.4L206.4,63.4L206.4,63.4L206.4,63.4c0,0,0,0-2.2,2.1
	c-2.1,2.1-2.1,2.1-2.1,2.1l0,0l0,0c0,0,0,0,0,0l0,0l0,0l0,0l0,0l0,0l0,0l0,0l0,0l0,0c0,0,0,0,0,0l0,0l0,0l0,0l0,0l0,0c0,0,0,0,0,0
	l0,0l0,0l0,0c0,0,0,0,0,0l0,0l0,0c0,0,0,0,0,0l0,0l0,0c0,0,0,0,0,0l0,0h0c0,0,0,0,0,0l0,0l0,0c0,0,0,0,0,0c0.1,0.1-0.1-0.1,0,0l0,0
	l0,0c0,0,0,0,0,0l0,0c0,0,0,0,0,0l0,0c0,0,0,0,0,0l0,0c0,0,0,0,0,0l0,0c0.2,0.2-0.2-0.2,0,0h0c0,0,0,0,0,0s0,0,0,0l0,0v0
	c0,0,0,0,0,0l0,0v0c0,0,0,0,0,0l0,0v0c0,0,0,0,0,0l0,0c0,0,0,0,0,0v0c0,0,0,0,0,0c0,0,0,0,0,0c0,0,0,0,0,0v0c0.1,0.1-0.1-0.1,0,0
	c0.1,0.1-0.1-0.1,0,0c0,0,0,0,0,0c0,0,0,0,0,0c0,0,0,0,0,0c0,0,0,0,0,0c0,0,0,0,0,0c0,0,0,0,0,0c0,0,0,0,0,0c0,0,0,0,0,0
	c0,0,0,0,0,0c0,0,0,0,0,0c0,0,0,0,0,0c0,0,0,0,0,0v0v0c0,0,0,0,0,0c0,0,0,0,0,0c0,0,0,0,0,0v0c0,0,0,0,0,0c0,0,0,0,0,0v0v0
	c0,0,0,0,0,0c0,0,0,0,0,0c0.1,0.1-0.1-0.1,0,0c0,0,0,0,0,0v0c0,0,0,0,0,0v0c0,0,0,0,0,0c0,0,0,0,0,0v0c0,0,0,0,0,0
	c0.1,0.1-0.1-0.1,0,0c0,0,0,0,0,0c0,0,0,0,0,0c0,0,0,0,0,0c0,0,0,0,0,0v0c0,0,0,0,0,0c0.1,0.1-0.1-0.1,0,0c0.1,0.1-0.1-0.1,0,0
	c0,0,0,0,0,0v0c0,0,0,0,0,0c0,0,0,0,0,0c0,0,0,0,0,0c0.1,0.1-0.1-0.1,0,0c0.1,0.1,0-0.1,0,0c0.1,0.1-0.1-0.1,0,0
	c0.1,0.1-0.1-0.1,0,0c0,0,0,0,0,0c0,0,0,0,0,0v0c0,0,0,0,0,0c0,0,0,0,0,0c0,0,0,0,0,0c0,0,0,0,0,0c0.1,0.1-0.1-0.1,0,0
	c0.1,0.1-0.1-0.1,0,0c0.1,0.1-0.1-0.1,0,0c0,0,0,0,0,0c0,0,0,0,0,0c0.1,0.1-0.1-0.1,0,0c0,0,0,0,0,0c0,0,0,0,0,0s0,0,0,0s0,0,0,0
	c0,0,0,0,0,0c0,0,0,0,0,0c0,0,0,0,0,0s0,0,0,0c0,0,0,0,0,0s0,0,0,0c0,0,0,0,0,0c0,0,0,0,0,0c0,0,0,0,0,0c0,0,0,0,0,0c0,0,0,0,0,0
	s0,0,0,0c0,0,0,0,0,0c0,0,0,0,0,0c0,0,0,0,0,0s0,0,0,0c0,0,0,0,0,0s0,0,0,0c0,0,0,0,0,0c0,0,0,0,0,0c0,0,0,0,0,0c0,0,0,0,0,0
	s0,0,0,0c0,0,0,0,0,0s0,0,0,0c0,0,0,0,0,0c0,0,0,0,0,0c0,0,0,0,0,0s0,0,0,0c0,0,0,0,0,0c0,0,0,0,0,0c0,0,0,0,0,0s0,0,0,0
	c0,0,0,0,0,0s0,0,0,0s0,0,0,0c0,0,0,0,0,0c0.1,0.1-0.1-0.1,0,0c0.1,0.1-0.1-0.1,0,0c0.1,0.1-0.1-0.1,0,0c0,0,0,0,0,0s0,0,0,0
	c0,0,0,0,0,0c0,0,0,0,0,0c0,0,0,0,0,0c0.1,0.1-0.1-0.1,0,0c0.1,0.1-0.1-0.1,0,0L206.4,63.4z"/>
<path class="st8" d="M345,219.6c-0.1-1.2-0.9-2.3-1.6-3.3c-5.2-6.4-12.7-11.4-20.9-11.7c-6-0.2-11.8,2-17.5,4.2h-0.1
	c0.8-5.3,1.6-10.5,2.5-15.8h0.2c1.5-0.2,2.9-1,3.9-2.3c1-1.2,1.4-2.7,1.3-4.1l0,0c1.1-1.1,1.9-2.4,2.6-3.7c2.1-3.6,4.3-7.3,5.3-11.5
	c1.1-4.7,0.3-9.2-2.2-12.2c-0.2-0.3-0.4-0.5-0.6-0.7c-0.5-0.6-1-1.1-1.3-1.7c-0.5-0.8-0.6-2,0-2.7c0.2-0.2,0.5-0.5,0.8-0.7
	c0.5-0.4,1.1-0.8,1.2-1.6c0-0.8-0.6-1.4-1.1-1.9c-4.6-4.1-5.2-10.9-5.7-16.9c-0.6-6.7-1.5-14.5-3.9-21.9
	c-2.5-7.7-6.5-14.3-11.6-18.8c-1.1-2.4-3.3-4-6.5-4.8c-2.3-0.5-4.8-0.6-7.1-0.7l-0.9,0c-4.4-0.1-8.8-0.5-13.1-1.1
	c-1-2-0.9-4.5,0.4-6.4c0.7-1.1,1.8-2.1,1.7-3.3c-0.1-1.1-1-1.8-1.9-2.3c-1.6-0.9-3.2-1.3-4.8-2.2c-1.6-0.8-3.1-2.1-3.4-3.8
	c-0.4-1.8,0.6-3.8-0.1-5.5c-0.8-2.1-3.5-2.7-5.7-2.5c-1.3,0.1-2.6,0.4-3.9,0.2c-1.3-0.2-2.6-1-2.9-2.3c0,0,0,0.1,0,0.1
	c0.1-1.9,0.1-3.7-0.1-5.6c-0.2-2.2-1.1-5.2-3.4-6.2c-2.2-0.9-4.7,0.4-6.1,2.4c2.6-6.9,4.1-14.7,1.2-21.5c-1.9-4.3-4.3-8.1-8.2-10.8
	c-4.4-3-6.7-5.1-11.6-7.1c-5.7-2.3-13.2-4.9-19.2-5.5c-4-0.5-10.3-1.1-13,1.9c-0.2,0.3-0.5,0.5-0.6,0.9c-0.2-0.1-0.4-0.1-0.6-0.1
	c-6.8,0-13.4,3.8-16.8,9.6c-0.8,1.4-1.4,2.8-2.3,4c-1.6,2.2-4.2,3.6-5.8,5.7c-1.1,1.5-1.8,3.3-2.4,5c-1.3,3.5-2.6,7.1-3.2,10.7
	c-0.4,2.1-0.6,4.2-0.3,6.3c0.1,1.2,0.5,2.3,0.8,3.4c0.2,0.9,0.6,1.7,1,2.5c-0.1,0.1-0.1,0.2-0.1,0.3c0.4,1,0.9,1.9,1.5,2.8
	c0.4,0.5,0.7,1,1.1,1.5l0,0.1c0.2,0.3,0.4,0.6,0.6,0.9c2.2,3.5,4.3,7.1,6,10.9c-0.5,0.3-1.1,0.6-1.6,0.9c-0.7,0.5-1.5,1-1.9,1.8
	c-0.4,0.8-0.4,1.8,0.2,2.4c1.2,0,2.2,0.7,3.1,1.7c1,2.8,2.3,5.2,4,7.1c0.2,0.2,0.4,0.5,0.6,0.7c-0.3,0.7-0.6,1.3-1.3,1.7
	c-1.5,1.1-3.6,0.7-5.5,0.5c-1.9-0.2-4.2,0.1-4.9,1.8c-0.9,1.9,0.7,4.1,0.1,6c-0.3,1-1.1,1.6-1.8,2.4c-0.6,0.7-1.2,1.7-1,2.7
	c0.3,1.4,2.1,1.9,2.7,3.2c0.5,0.9,0.3,2-0.1,2.8c-0.4,0.9-1,1.7-1.5,2.6c-0.7,1.3-1.2,2.7-0.9,4.2c0.2,1.4,1.3,2.8,2.7,3.1
	c1.1,0.2,2.2-0.1,3.1,0.5c0.6,0.5,0.7,1.5,0.9,2.3c0.1,0.9,0.5,1.8,1.2,2c0.6,0.2,1.3-0.1,1.7-0.6c0.1-0.2,0.3-0.4,0.4-0.6
	c-0.5,3.4-2.3,6.5-4.2,9.4c-1.7,2.7-3.5,5.6-4.1,8.8c-0.6,4.2-1,8.7,1.3,12h0c-1.6,0-3.1,1.4-3.7,2.7c-0.6,1.6-0.5,3.6-0.2,5.2
	c0,0.3,0.1,0.5,0.1,0.8c0.2,1.4,0.5,2.8,0.3,4.2c0,0.4-0.1,0.9-0.2,1.3c-0.1,0.7-0.3,1.4-0.3,2.2c0,2.2,1.5,4.2,4.3,6.1
	c0.8,0.6,1.6,1,2.4,1.5c-0.5,0.3-1,0.8-1.2,1.5c-0.2,0.7-0.2,1.6-0.1,2.2c0.1,1.4,0.5,2.7,1,3.9c0.1,0.2,0.2,0.5,0.5,0.7
	c0.3,0.2,0.7,0.1,0.9,0c7-1.6,14.6-0.7,21,2.7c0.1,2-0.2,4.1-0.9,6l0.1,0l-20.6,1c0.3-3.1,0.4-6.2,0-9.3l-0.5,0
	c0.3,3.1,0.3,6.2,0,9.3l-58.9,2.8l4.9,43.8v0.1c-7.7,9.4-17.2,17.3-27.7,23.4c0.5,7.5-2,15.8,2,22.1c1.1,1.8,2.8,3.3,4.5,4.7
	c7.5,6,16.7,9.3,26,11.5c9.3,2.2,18.8,3.2,28.1,5.1c5.4,1.1,10.8,2.4,16.3,3.1c6.4,0.7,12.9,0.5,19.4,0c11.6-1,23-2.8,34.2-5.7
	l-0.2-0.3l11-9.1c3.2-2.7,4.9-4.7,7.5-7.6l0.7-0.8c0,0,0.1-0.1,0.1-0.1c-0.1,0-0.3,0-0.4,0c-0.1,0-0.1,0,0,0c-0.1,0-0.3,0-0.5,0.1
	c-4.8,0.8-9.6-1.1-13.8-2.6c0.1,0,0.2,0,0.3,0c-14.8-4.6-29.5-9.1-44.3-13.7l-22.8-6.8l1.5,0l21.4,6.6c14.9,4.6,29.8,9.2,44.7,13.8
	l0.2,0c0.1,0,0.2,0,0.2,0.1c6-1.1,11.9-2.2,17.9-3.3c2.6-4,5-8.3,7.3-12.6c3.6-6.6,7.3-13.4,11.9-18.8
	c10.1-11.6,25.6-16.8,40.9-20.8c5.7-1.5,11.9-3.4,13.9-8.7l0.4,0.2c-2.1,5.5-8.4,7.6-14.2,9c-15.3,3.9-30.8,9.1-40.7,20.6
	c-4.7,5.4-8.3,12.2-11.9,18.8c-3.6,6.6-7.3,13.5-12,18.9l-0.7,0.7c-2.6,3-4.3,5-7.6,7.7l-10.9,9.1c0,0.4,0,0.9,0,1.3l-0.1,0.1
	c-1.8,1.4-3.7,2.7-5.9,3.7c-1.1,0.5-2.4,0.8-3.6,1.1c0-0.1,0.1-0.1,0.2-0.2c-1.6-0.8-3.7-0.7-5.4,0c-1.7,0.7-3.2,1.8-4.6,3.1
	c-2.8,2.6-5.1,5.7-6.8,9.5c-3.3,6-6.4,12.1-9,18.4c-2.1,5.1-4,10.4-4.2,15.9c-0.1,5.5,1.7,11.4,6,14.9c2.1,1.7,4.7,2.8,7.3,3.5
	c2.5,0.6,5.2,0.9,7.6,0.2c2.1-0.6,3.9-2.1,5.4-3.7c4.1-4.4,6-10.5,7.7-16.3c0.3-1.1,0.7-2.3,0.5-3.5c-0.1-0.5-0.3-1.1-0.5-1.6
	c0.5-1.5,0.8-3,1.1-4.5c0.9-3.6,1.8-7.4,3.7-10.5c2.5-4,8.4-7.4,12.9-10c0.4,0.2,0.7,0.4,1.1,0.5c0.4,0.1,0.8,0.3,1.2,0.2
	c0.5-0.1,0.7-0.5,1-1c1.9-2.9,5-4.6,8.1-6.3l0,0.1c0.2,0.3,0.4,0.7,0.6,1.1c1.6,5.7,3.8,11.3,6.4,16.6c1.7,3.5,3.7,6.9,6.6,9.4
	c3,2.5,7.1,3.8,10.7,2.4c2.4-0.9,4.2-2.7,5.7-4.8c4.3-6,5.7-13.9,4.6-21.3s-4.4-14.2-8.7-20.3c-0.1,0-0.1,0-0.2,0
	c8.5-6.4,16.7-13.2,25.1-19.6c16.5-12.6,34.4-24.1,46.9-40.7c4.1-5.4,7.5-11.4,10.5-17.5C344.6,221.8,345.1,220.7,345,219.6z
	 M304.4,208.9c-0.4,2.3-0.7,4.6-1.1,7l0,0.4c-0.1,0.8-0.2,1.6-0.7,2.4c-0.4,0.7-1,1.2-1.9,1.8c-6.2,4.2-14,5.6-20.8,6.9
	c-14.4,2.7-28.9,5.3-43.4,8l-0.5,0.1l-0.7,0.1c-2,0.4-3.9,0.7-5.9,1.1c-0.5,0.1-0.9,0.2-1.4,0.3c-0.1,0-0.2,0-0.3,0
	c-0.5,0.1-1,0.2-1.5,0.4c-0.1,0-0.2,0-0.3,0.1c-0.5,0.1-1.1,0.3-1.6,0.5c-0.1,0-0.2,0-0.3,0.1c-0.5,0.2-1.1,0.4-1.6,0.5
	c0,0-0.1,0-0.2,0c-0.5,0.2-0.9,0.3-1.4,0.5l-1.5-20.3c16.9-9.6,35-16.8,53.9-21.6l-0.1-0.4c3.1-0.6,6.1-1.6,8.9-2.5
	c1.2-0.4,2.4-0.8,3.6-1.2l0,0.2c6.1-2.1,12.7-2.8,19.1-2.1c0.7,0.1,1.6,0.4,2.1,0.9c0.1,0.1,0.1,0.2,0.2,0.3l-0.3,0
	C306.2,197.9,305.3,203.4,304.4,208.9z M311.1,190.5c-0.9,1.1-2.1,1.8-3.4,2.1c0-0.3-0.1-0.5-0.3-0.7c-0.5-0.6-1.6-1-2.4-1.1
	c-5-0.6-10.1-0.3-15.1,0.9c4.9-1.8,9.8-3.7,14.7-5.6c1.4-0.5,2.7-1.1,4.2-1.1c1.6,0,2.9,0.6,3.6,1.6h-0.1
	C312.5,187.9,312.1,189.3,311.1,190.5z M247.1,102.8c-1.3,0.2-2.6,0.7-3.8,1.1c-2.6,1.1-5.5,0.9-8.3,1.8c-1.4,0.4-2.7,1-4,1.5
	c-1.3,0.5-2.7,0.8-4,1.3c-1.5,0.5-2.3,1.8-2.8,3.2c-1.1,3.7-3.1,4-6.4,3c3.4,1.3,5.5,0.9,6.8-2.8c0.5-1.3,1.2-2.5,2.6-2.9
	c1.3-0.5,2.7-0.7,4.1-1.2c1.3-0.5,2.6-1.1,3.9-1.5c2.7-0.8,5.6-0.8,8.2-1.9C244.6,103.6,245.9,103.1,247.1,102.8
	c-0.8,1.6-1.7,2.9-2.8,4c-2.1,2.3-4.8,4.2-8.8,6c-7,3.3-13.6,4.4-19.6,3.4c-4.7-0.7-9-3-12-6.1c2.1,0.8,4.4,1.1,6.6,0.9
	c1.8-0.3,3.4-0.1,4.8,1.2c0.5,0.4,0.9,0.8,1.3,1.2c-1.6-2.3-3.2-3.3-6.1-2.8c-2.2,0.2-4.5,0-6.7-0.5c-1.4-1.5-2.6-3.1-3.3-4.9
	c2,0.7,4,1.2,5.8,1.6c0.7,0.1,1.6,0.3,2.3,0.3c0.5,0,1,0,1.5-0.2c0.5-0.1,0.9-0.3,1.2-0.5c2.2,1.9,4.4,3.7,6.8,5.3
	c-2-2.1-4.2-3.9-6.8-5.3c0.8-0.5,1.5-1.1,2.1-1.7l15-14.4c2.6-2.5,5.2-5,7-8.1c2-3.4,2.8-7.3,3.4-10.8l2.3,14.8
	c0.1,0.5,0.1,1,0.2,1.5l-0.2,0.1l0.2,0c0.5,3.2,0.9,6.5,0.6,9.8l0.5,0c0.3-3.1-0.1-6.2-0.5-9.2c0.8,0.1,1.6,0.2,2.5,0.2
	c1.8,0,3.6-0.3,5.3-0.9c0.6,1.3,0.5,2.8,0.3,4.4C249.7,96.4,248.6,99.9,247.1,102.8z M239.2,70.6L239.2,70.6
	C239.2,70.6,239.2,70.6,239.2,70.6z M244.8,88.2c0.6-0.1,1.3-0.4,1.9-0.7c0.1-0.1,0.3-0.2,0.4-0.3c0.6-0.4,1.2-0.8,1.8-0.6
	c0.3,0.1,0.6,0.3,0.9,0.7c0,0,0,0,0,0.1C248.2,87.9,246.5,88.2,244.8,88.2z M244.4,46.4c2.1,0.9,2.9,3.7,3.1,5.8
	c0.2,2.3,0.2,4.6,0,6.9c-0.1,1.2-0.4,2.4-0.6,3.5c0,0,0,0,0,0.1l0,0.1c-0.1,0.4-0.2,0.8-0.3,1.2c-0.5,1.5-1.1,3.4-2.5,4.8
	c-1.4,1.4-3.4,1.8-4.9,1.1l-0.3-0.1l0,0.3c-0.5,3.8-1.3,8.1-3.5,11.9c-1.8,3.1-4.4,5.6-7,8l-15,14.4c-0.9,0.9-1.9,1.8-3.1,2.2
	c-1.2,0.4-2.5,0.1-3.6-0.1c-4.3-0.9-8.8-2.5-13.8-4.9c-0.4-0.2-0.8-0.4-1.2-0.5l0,0h0c-3.7-1.8-7.4-3.8-10.7-5.7
	c-2.1-1.2-4.6-2.6-6.1-4.7c-1-1.4-1.5-3-2-4.5c1.8,1.3,3.8,2.2,5.9,2.4c0.5,0,0.9,0.1,1.3,0.1c2.8,0,5.6-1.1,7.4-3.1
	c2.3-2.6,3-6.3,3.3-9.6c0-0.5,0.1-1.1,0.1-1.6c0,0,0,0,0,0.1c0.5-1.5,1.8-2.7,3.3-3c1.1-0.3,2.3-0.1,3.3,0.4c0.4,1.3,1,2.5,1.7,3.7
	c1.1,1.6,2.5,2.9,4.2,4.2c2.6,1.7,5.3,2.7,7.9,2.7c0.5,0,1,0,1.5-0.1c4.3-0.6,8.2-4.2,9.9-9.1c0.7-2.2,1-4.4,1.1-6.5
	c0,0.2,0.1,0.4,0.1,0.6c0.2-1.6,0.4-3.2,0.5-4.8c0-0.1,0-0.2,0-0.4c2.1-2.4,4.4-4.7,6.9-6.7c2.2-1.7,4.5-3.4,6.2-5.5
	c0,0,0,0.1,0,0.1l0.2,0.7l0.2-0.6C239.1,47.5,242,45.4,244.4,46.4z M168.6,73.5c1.1-1.1,2.6-1.8,4.1-2.5c2.8-1.1,5.7-2.1,8.7-2.2
	c3-0.1,6.1,0.5,8.5,2.3c0.2,0.2,0.5,0.4,0.6,0.6c0,0.1,0,0.3,0,0.4c0,1.2-0.1,2.5-0.3,3.7c-0.3,3.2-0.9,6.8-3.2,9.3
	c-2,2.2-5.2,3.3-8.3,2.8c-2.2-0.3-4.3-1.2-6.2-2.7l-0.3-1.1c-0.1-0.5-0.3-1-0.4-1.4l0-0.3c0-0.1-0.1-0.3-0.1-0.4
	c-0.1-0.3-0.2-0.6-0.3-1c0-0.3-0.1-0.6-0.1-1c0,0.3,0.1,0.5,0.1,0.8C170.6,78.5,169.7,76,168.6,73.5
	C168.6,73.6,168.6,73.5,168.6,73.5z M176.4,93.1c0.3,0.3,0.7,0.5,1,0.7C177.1,93.6,176.8,93.4,176.4,93.1z M222.2,73
	c-1.6,4.7-5.3,8.1-9.5,8.8c-2.9,0.4-6.1-0.5-9-2.5c-1.7-1.1-3.1-2.5-4.1-4c-0.6-1-1.1-2-1.5-3c0.1,0.1,0.3,0.2,0.4,0.3
	c-0.2-0.2-0.4-0.4-0.5-0.6c-0.1-0.5-0.3-1-0.4-1.4c0-0.7,0.2-1.4,0.5-2.1c0.7-1.3,2-2.2,3.3-2.9c2.1-1.2,4.1-2.4,6.2-3.5
	c1.4-0.7,2.8-1.5,4.4-1.8c2.9-0.6,5.8,0.1,8.7,1.1c0.4,0.1,0.7,0.2,1.1,0.5c0.4,0.3,0.6,0.8,0.9,1.2c0.2,0.5,0.5,1.1,0.6,1.6
	C223.4,67.8,223.1,70.5,222.2,73z M167.2,39.8c-0.1-0.1-0.1-0.2-0.2-0.3c0.1,0.1,0.2,0.2,0.4,0.4C167.3,39.8,167.3,39.8,167.2,39.8z
	 M164.9,46c0.4-1.3,0.6-2.7,0.5-4c0.1,0.3,0.3,0.6,0.4,0.9c0.3,0.8,0.5,1.7,0.3,2.6c-0.3,1.1-1.2,2-2.3,2.4
	C164.4,47.3,164.8,46.5,164.9,46z M181,34.4c-0.1,0.1-0.2,0.3-0.4,0.5c0-0.2,0.1-0.5,0.1-0.7c0-0.3,0-0.6,0.1-0.9c0,0,0,0,0.1,0
	c0.2,0,0.4-0.1,0.5-0.2C181.4,33.6,181.2,34,181,34.4z M170.8,41.6c1.1-0.1,2.6-0.2,3.9-0.7c2-0.8,3.8-2.3,5-4.4l0.1-0.2
	c-0.3,1.1-0.7,2.1-1.3,2.9c-1.6,2.4-4.4,3.6-6.8,3.1c-0.5-0.1-1-0.3-1.5-0.6C170.5,41.6,170.6,41.6,170.8,41.6z M201.3,28.5
	c0,0,0,0.1,0,0.2c0.2,1.3,0.7,2,1.5,2.1c0.3,0,0.6-0.1,1-0.2l2.4-1.1c0,0.1,0.1,0.3,0.2,0.4c0.2,0.3,0.6,0.5,1,0.5
	c0.6,0,1.1-0.2,1.6-0.5c0.1,0,0.2-0.1,0.2-0.1c0,0,0,0.1,0,0.1c-1.7,1.7-4.3,2.5-6.5,1.9c-0.7-0.2-1.2-0.5-1.6-0.8
	c-0.5-0.5-0.7-1.1-1-1.8c0.3-0.1,0.5-0.3,0.8-0.5C201.2,28.4,201.3,28.5,201.3,28.5z M199.3,32.2c-0.9-0.4-1.7-0.9-2.4-1.6
	c0.3-0.4,0.6-0.7,1-1.1C198.2,30.6,198.7,31.5,199.3,32.2z M212.9,32.2c0.3,1.2,1.1,2.2,2.1,2.4c0.4,0.1,0.8,0.1,1.2,0v0v0.1
	c0,0.2,0.1,0.5,0.4,0.6c0.3,0.2,0.7,0,1-0.3c0.1-0.1,0.1-0.2,0.2-0.3c0,0,0-0.1,0.1-0.2c0.1,0.1,0.2,0.3,0.3,0.5
	c0.1,0.3,0.3,0.7,0.7,0.9c0.2,0.1,0.5,0.1,0.8-0.1c0.1,0,0.1-0.1,0.2-0.2c0.1,0.1,0.3,0.2,0.5,0.4c0.1,0.1,0.2,0.2,0.3,0.3
	c-1.1,0.2-2.5,0.3-3.8,0c-1.7-0.5-3.3-1.6-4.3-3.3c-0.3-0.5-0.5-1.1-0.8-1.6c-0.1-0.3-0.3-0.6-0.5-1c0-0.3,0.1-0.6,0.1-0.9
	c0.2,0.2,0.5,0.4,0.7,0.6c0.2,0.2,0.5,0.4,0.8,0.4C212.7,30.9,212.7,31.6,212.9,32.2z M215.1,33.1c-0.4-0.5-0.4-1.2-0.4-1.8
	c0-0.1,0-0.2,0-0.2l0.6,0.5c0.1,0.1,0.3,0.3,0.5,0.4c0,0.6,0.1,1.2,0.3,1.8C215.6,33.7,215.3,33.4,215.1,33.1z M160.9,58.9
	c0.3-0.6,0.5-1.4,0.4-2.1c0-0.1,0-0.3-0.1-0.5c0-0.3-0.1-0.6-0.1-0.9c0-0.2,0.1-0.5,0.2-0.7c0-0.1,0-0.2,0.1-0.2c0.3-1,0.3-2,0-3
	c0.5-0.1,1.1-0.5,1.3-1.1c0.1-0.3,0.1-0.7,0-1c1,0,2.1-0.1,3-0.4c1-0.3,2.3-0.9,2.9-2.1c0.5-1,0.4-2,0.2-2.7
	c-0.1-0.9-0.4-1.8-0.8-2.7c0.4,0.1,0.8,0.1,1.3,0.1c0.7,0.5,1.5,0.9,2.2,1.1c0.4,0.1,0.9,0.1,1.3,0.1c2.2,0,4.5-1.3,6-3.4
	c0.6-0.9,1.1-2,1.4-3.2c0.2-0.1,0.4-0.1,0.6-0.3c1-0.5,1.8-1.4,2.2-2.3c0.3-0.5,0.4-1.2,0.4-1.8c0,0,0.1-0.1,0.1-0.2
	c0.3-0.5,0.1-1,0-1.4v0c-0.6-2.9,0.2-5.9,1-8.8l0.1,12.8l0.5-1.4c0.2-0.6,0.6-1.2,1.3-1.7c0.6,0.8,1.4,1.6,2.3,2.1
	c1.8,0.9,4.2,0.5,6.4-1.1c0.4-0.3,0.7-0.5,1.1-0.9c0.4,0.6,0.9,1.2,1.6,1.8c0.6,0.5,1.4,1.1,2.3,1.6c1.5,0.6,3.3,0.6,5.6,0
	c1.2-0.3,2.9-0.9,4.1-2.1c0,0.1,0.1,0.2,0.1,0.3c1,2.1,3.1,3.8,5.6,4.3c1.6,0.4,3.3,0.3,5-0.1c0,0,0,0.1,0,0.1
	c0,1.5,0.5,2.7,1.3,3.6c0.7,0.7,1.7,1.1,3.1,1.3c1.3,0.2,2.5,0.2,3.6-0.1c0.6,1.1,1.5,2.1,2.5,2.9l0.2,0.2l0.3-0.5
	c0.5,1.1,1.3,2.1,2.3,2.9l0.3,0.2l0.1-0.5c0.5,0.8,1.4,1.5,2.4,1.6l0.3,0l0-0.5c0.1,0.1,0.2,0.2,0.3,0.3c0,0.1,0.1,0.2,0.1,0.4
	c0,0,0,0.1,0,0.2v0c-4.2,2.6-8.4,5.2-12.5,8c0-0.5,0.1-0.9,0.1-1.3c-8.9-0.6-18.4,0.6-25.4,6.2c-1.2,1-2.4,2.1-3.1,3.5
	c-0.7,1.4-1,3.1-0.4,4.5c-1.6-1.1-4.2-0.5-5,1.3c-0.3-1.2-0.8-2.3-0.5-2.4c-7.3-4-16.5-3.3-23.8,0.6C165.2,66,163.2,62.4,160.9,58.9
	z M170.8,83.7c-1.6-1.7-2.8-3.8-3.7-6.3c-0.1-1.2,0.4-2.5,1.2-3.5c1.1,2.8,2.1,5.6,3,8.5c0,0.1,0.1,0.2,0.1,0.4l0,0.2v0
	c0,0,0,0,0,0.1c0,0.4-0.1,0.8-0.2,1.1C171.1,84.1,170.9,83.9,170.8,83.7z M163.7,181.6c-0.2,0-0.5,0.1-0.6,0
	c-0.1-0.1-0.2-0.3-0.3-0.5c-0.5-1.2-0.9-2.5-1-3.8c0-0.6-0.1-1.3,0.1-2c0.2-0.7,0.7-1.2,1.2-1.3v0c4.8,2.6,10.2,4,15.7,4
	c1.1,0,2.2,0,3.4-0.2c0.6,1.1,1.2,2.3,1.9,3.5c0.3,1,0.5,2,0.6,3C178.4,180.9,170.7,179.9,163.7,181.6z M184.6,181
	c-2.2-3.9-3.9-7.3-5.2-10.7c-0.8-2-1.5-4.1-1.4-6.4c0.1-2.6,1.3-5,2.4-7.4c0.1-0.3,0.3-0.6,0.5-1c2.2-4.8,3.8-9.7,4.6-14.4l0.3,0
	c0-0.3-0.1-0.6-0.2-1c1-6.4,0.6-12.5-1-18.2l-0.5,0.1c1.6,5.2,1.9,10.9,1.2,16.7c-1-4.7-2.9-9.2-5.5-13.3l-0.4,0.2
	c2.8,4.3,4.8,9.3,5.7,14.4c-0.8,5-2.4,10.2-4.8,15.2c-0.1,0.3-0.3,0.6-0.5,1c-1.1,2.4-2.3,4.9-2.4,7.6c-0.1,2.3,0.6,4.5,1.4,6.5
	c0.9,2.2,1.8,4.4,3,6.7c-7.4,0.8-15.3-1.2-21.4-5.4c-2.7-1.8-4.1-3.8-4.1-5.8c0-0.7,0.1-1.3,0.3-2.1c0.1-0.5,0.2-0.9,0.2-1.3
	c0.2-1.5-0.1-2.9-0.3-4.3c0-0.3-0.1-0.5-0.1-0.8c-0.3-1.6-0.4-3.4,0.2-4.9c0.5-1.4,2.1-2.7,3.7-2.4l0.2,0c2.1,2.2,4.9,3.8,7,6
	c1.3,1.5,2.7,3.3,2.5,5.4c-0.5,1.8-2.4-0.6-3.1-1.1c-1.8-1.6-3.4-3.4-4.8-5.4c1.3,2.1,2.9,3.9,4.6,5.6c0.7,0.6,1.3,1.3,2.1,1.8
	c0.7,0.4,1.6,0,1.6-0.8c0.2-2.2-1.2-4.3-2.6-5.8c-2.1-2.2-4.9-3.6-7.1-5.7l0.2,0l-0.4-0.5c-2.5-3.3-2.1-7.7-1.5-12
	c0.6-3.1,2.3-5.9,4-8.7c1.9-3,3.8-6.2,4.2-9.8c0-0.5,0.1-1.1,0.1-1.7c0.5-1.7,0.9-3.4,1-5.1c0-0.6,0-1.3,0.3-1.9c0,0,0,0,0-0.1
	c6.6,3.8,12,9.6,15.1,16.5l0.4-0.2c-3.2-7-8.6-13-15.3-16.8c0.5-0.8,1.5-1.4,2.4-1.8c0.4-0.2,0.8-0.4,1.2-0.5c0.2,0,0.4-0.1,0.6-0.1
	l11.1-2.2c2.6-0.5,5.9-1.2,8.2-3.4c2.6,1.2,5.1,2.2,7.5,3.1h0c2.5,6,8.7,10.5,15.9,11.6c6.1,1,12.8-0.2,19.9-3.5
	c4-1.8,6.8-3.8,8.9-6.1c3.2-3.5,5.1-8.3,6.1-14.9c0.3-1.9,0.4-3.8-0.7-5.2c-0.3-0.5-0.7-0.7-1.1-0.9c-0.8-0.2-1.6,0.3-2.2,0.7
	c-0.1,0.1-0.3,0.2-0.4,0.3c-1.1,0.7-2.5,0.9-3.7,0.6c3.2-1.6,6.7-3.4,10.4-3.7c2.6-0.2,5.1,0.3,7.6,0.8l0.8,0.1
	c6.7,1.2,13.6,2,20.4,2.2l0.9,0c2.3,0,4.7,0.1,7,0.7c3.1,0.7,5.2,2.3,6.2,4.6l0,0.1c5,4.5,9,11,11.5,18.7c2.4,7.4,3.3,15.2,3.9,21.8
	c0.5,6.1,1.1,13,5.9,17.2c0.5,0.4,1,0.9,1,1.5c0,0.5-0.5,0.8-1,1.2c-0.3,0.2-0.6,0.5-0.9,0.7c-0.1,0.2-0.2,0.4-0.3,0.5
	c-5.9,3.9-13.3,5.4-18.3,10.6l-0.1,0.2l0.2,0.1c1.9,1.2,4.1-0.3,5.8-1.2c1.7-1.1,3.4-2.2,5-3.5c2.4-1.9,4.9-3.9,7.3-6
	c-0.2,0.8,0,1.7,0.4,2.4c0.4,0.7,0.9,1.2,1.4,1.8c0.2,0.2,0.4,0.5,0.6,0.7c2.4,2.9,3.2,7.3,2.1,11.9c-1,4.1-3.2,7.8-5.3,11.4
	c-0.7,1.1-1.4,2.4-2.3,3.4c-0.8-1.1-2.3-1.8-3.9-1.7c-1.5,0-3,0.6-4.3,1.2c-7.3,3-14.8,5.8-22.3,8.3c-3.6,1.2-7.4,2.4-11.1,2.9
	c-0.9,0.1-1.9,0.2-2.9,0c-1-0.3-1.8-1-2.6-2c-1.9-2.4-2.5-5.7-1.7-8.7c0.8-2.9,3.2-5.4,6-6.5l0.3-0.1c0,0-0.1,0-0.1,0c0,0,0,0,0.1,0
	c13.4-8.4,31-9,42.6-20.6c-11.2,10.4-27.3,11.4-40.2,19c0,0-2,1.3-2.4,1.6l-0.1-0.1c5.1-2.7,8.5-7.9,13.8-10.4
	c-0.4,0.1-0.7,0.3-1.1,0.5c-5,2.3-8.3,7-12.8,9.9v0c-3.5-3.9-2.1-10.4-1.2-14.7c2.3-10.9,3-19.2,2.1-26.8c-0.1-0.9-0.2-1.8-0.4-2.7
	c-0.5-3-0.9-6.1-0.4-9.2c0.8-4.6,3.6-8.6,6.1-12.1l-0.4-0.3c-2.6,3.6-5.4,7.6-6.2,12.3c-0.5,3.1,0,6.3,0.4,9.3
	c0.1,0.9,0.2,1.7,0.4,2.6c0.9,7.6,0.3,15.8-2.1,26.7c-0.9,4.3-2.3,10.8,1.1,14.9c-2.9,1.1-5.1,3.7-6,6.6c-0.9,3.1-0.2,6.5,1.8,9.1
	c0.9,1.1,1.8,1.8,2.9,2.2c0.5,0.1,1,0.2,1.5,0.2c0.5,0,1.1,0,1.6-0.1c0.3,0,0.7-0.1,1-0.1c-18.3,4.8-36,11.9-52.5,21.2l-2.1-29.1
	l-33,1.6C185.5,187.6,185.6,184.2,184.6,181z M315.9,154.5c-2.5,1.9-5.3,4.1-7.4,5.7c-2.1,1.5-4.1,3-6.3,4.1
	c-1.1,0.6-2.6,1.2-3.8,0.6c1.3-1.3,2.8-2.5,4.3-3.4C306.9,159,311.8,157.3,315.9,154.5z M104.6,195.1l112.4-5.4l3.7,49.5l1.5,19.9
	c0,0.1-0.1,0.1-0.1,0.2l-72.4,1.8c0,0,0,0,0,0v0l-37.4,0.9L104.6,195.1z M101.2,255.9c3.1,1.9,6.6,3,10.2,3.3l0,0.5
	c-3.7-0.3-7.3-1.5-10.5-3.4L101.2,255.9z M222.6,258.8l-0.9-11.4l-0.6-7.9c0.5-0.2,1-0.4,1.5-0.6c0.1,0,0.1,0,0.2-0.1
	c0.5-0.2,1.1-0.4,1.6-0.5c0.1,0,0.2,0,0.2-0.1c0.5-0.1,1.1-0.3,1.6-0.5c0,0,0.1,0,0.2,0c0.5-0.1,1.1-0.3,1.6-0.4c0,0,0.1,0,0.2,0
	c2.4-0.5,4.8-1,7.3-1.5l0.7-0.1L222.6,258.8z M211.2,333.8c-2,3.2-2.9,7-3.8,10.7c-0.3,1.3-0.6,2.7-1,4c-0.1-0.2-0.3-0.4-0.4-0.6
	c-1.9-2.6-4.8-4.3-7.9-5.3c-3.1-1-6.3-1.2-9.5-1.4c-0.2-4.4,1.6-8.7,3.4-12.7c2.8-6.6,5.8-13.2,10-19.1c1.4-0.3,2.8-0.6,4.2-1.2
	c2.1-0.9,3.9-2.2,5.7-3.5c0,0.6,0.2,1.2,0.3,1.8c0.9,6.6,5.4,13.7,12,17.3C219.5,326.4,213.8,329.8,211.2,333.8z M236.8,317.1
	c8.1-4.4,15.6-9.5,23-15c0.1,0,0.3,0,0.4,0c0,0.1,0,0.2,0,0.3c0,0.1,0,0.3,0,0.5c0,1.1,0.3,2.1,0.6,3.2c0.1,0.3,0.1,0.5,0.2,0.8
	c0.3,3.2,0.2,6.1-0.5,8.7c-1.3,4.8-4.4,8.7-8.3,10.4c-4.3,1.9-9.7,0.8-12.4-2.6c-0.9-1.1-1.5-2.3-2.1-3.6c-0.4-0.8-0.8-1.6-1.2-2.3
	c0.1-0.1,0.2-0.2,0.2-0.4C236.7,317.1,236.8,317.1,236.8,317.1z M260.6,301.6L260.6,301.6C260.6,301.6,260.6,301.6,260.6,301.6
	C260.6,301.5,260.6,301.6,260.6,301.6z"/>
<path class="st8" d="M211.8,302.6L211.8,302.6L211.8,302.6L211.8,302.6C211.9,302.6,211.9,302.6,211.8,302.6z"/>
<path class="st8" d="M233.7,195.7c6.1-0.9,12.4-2.1,17.9-5c1.4-0.8,2.7-1.6,3.9-2.6c-6.4,4.6-14.3,6-21.9,7.2
	c-4.5,0.7-9.4,1.6-13.7-0.4C224.1,197.2,229.1,196.4,233.7,195.7z"/>
<path class="st8" d="M226.9,203.9c12.2-0.1,24.4-4.3,34.3-11.5l1.9-1.5l-2,1.4C251,199.1,239.1,203.2,226.9,203.9z"/>
<path class="st8" d="M246.5,135.3c0,0-0.1,0.1-0.2,0.1c-1.6,1.1-3.1,3.1-2.6,5.1c0.2,0.9,0.8,1.6,1.4,2.3c0.3,0.3,0.5,0.7,0.7,1
	c0.4,0.6,0.6,1.2,0.9,1.9c0.2,0.5,0.4,0.9,0.6,1.3c0.5,1,1.4,2.2,2.7,2.4c0.2,0,0.5,0,0.6,0c1,0,1.9-0.4,2.7-0.8
	c0.9-0.4,1.7-0.8,2.6-0.8c0.5,0,1.1,0.1,1.6,0.2c1,0.2,2,0.4,2.8-0.1c1.1-0.7,1.3-2.2,1.3-3.3c0-2.8-0.3-5.6-1-8.3
	c0.5-1.1,0.8-2.2,0.8-3.4c0-1.1-0.4-1.9-1.1-2.2c-0.8-0.3-1.6,0.1-2,0.7c-0.3,0.4-0.5,0.7-0.6,1.1c0-0.4-0.1-0.8-0.2-1.2
	c-0.1-0.5-0.3-1-0.6-1.5c-0.4-0.5-0.9-0.8-1.5-0.8c-0.5,0-0.8,0.3-1.1,0.5c-0.1,0.1-0.2,0.1-0.4,0.2c0-2.4-0.1-4.8-0.3-7.1
	c-0.1-1-0.3-2.1-1.2-2.5c-0.2-0.1-0.5-0.1-0.6,0c-0.5,0.1-0.6,0.6-0.7,1c-0.7,3.5-1.1,7.1-1.3,10.8c-0.7-1.3-1.2-2.7-1.7-4
	c-0.7-1.9-1.5-3.9-2.7-5.6c-0.2-0.3-0.5-0.7-1-0.7c-0.6,0-1.1,0.5-1.1,1c-0.1,0.5,0,1,0.1,1.4L246.5,135.3z M257.6,137.6
	c0.4-1.2,0.5-2.6,0.3-4.1l0.1,0c0.1-0.6,0.3-1.2,0.7-1.7c0.3-0.4,1-0.7,1.5-0.6c0.6,0.2,0.8,1.1,0.8,1.8c0,1-0.3,2-0.6,2.9l-0.3,0.1
	c0,0.1,0,0.2,0.1,0.4c-0.3,0.7-0.6,1.4-1,2.1c-0.2,0.1-0.4,0.3-0.5,0.4c-0.1,0.1-0.2,0.2-0.3,0.3c-0.1,0.1-0.3,0.2-0.5,0.1
	c0,0-0.1,0-0.1-0.1c0,0,0-0.1,0-0.2c0-0.4-0.1-0.8-0.1-1.2h-0.1C257.6,137.7,257.6,137.6,257.6,137.6z M254.7,130.1
	c0.3-0.2,0.6-0.4,1-0.4c0.5,0,0.8,0.3,1.1,0.6c0.3,0.4,0.4,0.9,0.5,1.3c0.5,2.2,0.5,4.2,0,5.9c-0.1,0.4-0.2,0.5-0.4,0.6
	c-0.3,0.1-0.6-0.4-0.8-0.8c-0.8-2-1.4-4.1-1.9-6.8C254.3,130.4,254.5,130.2,254.7,130.1z M251.7,121.3c0-0.2,0.1-0.6,0.4-0.6
	c0.1,0,0.2,0,0.3,0c0.7,0.3,0.9,1.3,1,2.2c0.2,2.4,0.3,4.9,0.3,7.3c0,0.9,0,1.8,0,2.7h0.5c0-0.2,0-0.4,0-0.5
	c0.4,1.9,0.9,3.5,1.6,5.1c0.2,0.5,0.6,1.1,1.1,1.1c0.1,0,0.1,0,0.2,0c0.2,0,0.3-0.1,0.4-0.2c0,0.3,0,0.5,0,0.8c0,0.1,0,0.3,0.1,0.5
	c0.1,0.1,0.3,0.2,0.5,0.3c0,0,0.1,0,0.1,0c0.2,0,0.5-0.1,0.7-0.2c0.1-0.1,0.2-0.2,0.3-0.3c0.1-0.1,0.3-0.3,0.5-0.4l0,0l0-0.1
	c0.3-0.5,0.5-1,0.8-1.6c0.6,2.5,0.9,5,0.9,7.6c0,1-0.1,2.3-1.1,2.9c-0.7,0.5-1.6,0.2-2.5,0c-0.5-0.1-1.1-0.2-1.6-0.2
	c-1,0-1.9,0.4-2.8,0.8c-1.1,0.5-2.1,1-3.1,0.7c-1.2-0.3-2-1.3-2.4-2.2c-0.2-0.4-0.4-0.9-0.6-1.3c-0.3-0.6-0.5-1.3-1-1.9
	c-0.2-0.4-0.5-0.7-0.8-1.1c-0.5-0.7-1.1-1.4-1.3-2.2c-0.5-1.8,1-3.5,2.4-4.6c0.1-0.1,0.2-0.2,0.4-0.2h0.1v0c1.4-0.9,2.9-1.6,4.5-1.8
	c0.3,0,0.7-0.1,0.9,0.1c0.1,0.1,0.1,0.3,0,0.5c-0.4,1.8-2,3.1-3.7,4.4l-1,0.7l1.2-0.3c0.9-0.2,2,0,2.8,0.6c0.8,0.6,1.4,1.6,1.4,2.5
	h0.5c0-1.1-0.6-2.2-1.6-2.9c-0.7-0.5-1.5-0.8-2.3-0.8c1.5-1.1,2.8-2.4,3.2-4.1c0-0.2,0.1-0.6-0.1-0.9c-0.2-0.4-0.7-0.5-1.4-0.3
	c-0.4,0.1-0.8,0.2-1.2,0.3l0-0.6C250.5,129,250.9,125.1,251.7,121.3z M243.7,122.8c0-0.3,0.4-0.6,0.7-0.6c0.3,0,0.5,0.3,0.7,0.5
	c1.2,1.6,2,3.6,2.6,5.5c0.6,1.6,1.2,3.3,2.1,4.8l0.4,0.6c-1.2,0.4-2.3,0.9-3.3,1.5l-3-11.1C243.7,123.5,243.7,123.1,243.7,122.8z"/>
<path class="st8" d="M295.3,91.5l-0.3-0.3c-5,4.7-9.6,9.9-13.7,15.4l0.4,0.3C285.7,101.3,290.3,96.1,295.3,91.5z"/>
<path class="st8" d="M301.6,155.5l1.6-1.6l1.4-1.7l1.3-1.8c-7.1,9.7-19.4,15.1-31.3,14C284.4,165.7,294.6,162.2,301.6,155.5z"/>
<path class="st8" d="M228.2,104.9c3.4-5.4,5.8-11.5,7-17.9c-1.6,5.8-3.8,11.4-6.4,16.8C228.5,104.2,228.4,104.5,228.2,104.9z"/>
<path class="st8" d="M242.9,50.6c1.2,1.5,1.9,3.2,2.1,5.2C245.5,53.9,244.6,51.7,242.9,50.6z"/>
<path class="st8" d="M196.3,94.1c2.2,0.3,4.4-0.1,6.4-0.7c1.2-0.4,2.4-0.9,3.4-1.6c2-1.5,3.2-3.9,4.2-6.2
	C207.7,90.7,202,94.1,196.3,94.1z"/>
<path class="st8" d="M204.3,65.4c1.9,1.2,0.1,4.1-0.8,5.4c-0.1,0-0.3,0.1-0.5,0.2c-0.2,0-0.4,0.1-0.5,0.3c-0.1,0.1-0.2,0.4-0.2,0.5
	c-0.1,0.5-0.5,0.9-0.8,1.2c1-0.2,1.3-1.2,2.6-1.6c0.5,0,1.1-0.1,1.7-0.3c0,0.4,0,0.9,0.1,1.2c0.1,0.4,0.5,0.8,0.9,0.9
	c0.4,0.1,0.7,0,1.1-0.1c1.2-0.4,2.3-0.9,3.4-1.4c0.1,0,0.3-0.1,0.4-0.3c0.1-0.1,0.1-0.3,0-0.5c-0.1-0.7-0.2-1.4-0.5-2.1
	c1.6-1.1,2.7-2.7,3.4-4.6c-3,2.7-6.6,4.9-10.4,6.3C205,69.1,206.1,66.5,204.3,65.4z"/>
<path class="st8" d="M243.2,68.1c0.4-1,0.4-2.1,0.2-3.1c1-1.6,1.3-3.5,0.9-5.3c-0.2,1.8-0.5,3.4-0.9,5.2c-0.5-2.1-2-3.5-4.1-1.6
	c-0.8-5.2,1.1-10.7,5-14.2c-4.5,3.4-6.6,9.6-5.3,15.1C242.2,60.4,244,65.1,243.2,68.1z"/>
<path class="st8" d="M181.9,58.1c-0.2-0.5-0.8-0.8-1.4-0.9c-0.5,0-1.1,0.1-1.7,0.2c-2.4,0.6-4.8,1.2-7,2.4c-2.2,1.1-4.1,3-4.9,5.3
	c2.7-0.9,5-1.8,7.4-2.8c1.4-0.6,2.9-1.2,4.4-1.5c0.8-0.1,1.6-0.2,2.3-0.6C181.7,59.8,182.3,58.8,181.9,58.1z"/>
<path class="st8" d="M199.9,55.1c6.7-2.1,13.4-4.4,20-7c0.1-0.5-0.4-0.8-0.9-0.9c-7.2-1.6-15.1-0.5-21.1,3.8c-0.5,0.4-1,0.8-1,1.4
	c0,0.3,0.3,0.6,0.5,0.9C198.1,54.2,198.8,55.5,199.9,55.1z"/>
<path class="st8" d="M176.8,80.6c0.2,0.1,0.5,0,0.7,0l2.9-0.7c0.3,0,0.6-0.2,0.7-0.5c0.1-0.2,0-0.4,0-0.6c-0.1-0.5-0.2-1.1-0.3-1.6
	c1.6-1.1,3.1-2.4,4.2-4.1c-3.2,2.4-7,4.2-10.8,5c0.1-0.3,0.3-0.5,0.4-0.8c0.4-0.9-0.2-1.7-0.9-2.2c-0.3-0.3-0.6-0.5-0.9-0.8
	c0.3,0.3,0.5,0.6,0.8,0.9c1.1,1.1,1,1.9,0,3l0.1,0.1c0,0-0.1,0-0.2,0c-0.3,0.5-0.5,1.1-0.9,1.6c1.1-0.6,2.2-1,3.4-1.2
	C176.4,79.4,176.1,80.3,176.8,80.6z"/>
<circle class="st9" cx="413.5" cy="64.5" r="26.5"/>
<circle class="st9" cx="458.5" cy="364.5" r="9.5"/>
</svg>
