<?xml version="1.0" encoding="UTF-8"?><svg id="Layer_2" xmlns="http://www.w3.org/2000/svg" viewBox="0 0 267.14 47.09"><defs><style>.cls-1{fill:#49eee4;}.cls-2{fill:#939dfc;}</style></defs><g id="Layer_1-2"><path class="cls-1" d="M12.28,21.79c1.73,0,3.22.19,4.08.48v-1.63c0-3.65-.72-5.38-2.83-5.42-2.45-.05-2.78,1.44-3.31,3.31-.34,1.25-2.02,1.92-3.7,1.92-2.02,0-4.08-.91-3.94-2.74.19-2.93,4.7-4.94,11.52-4.9,7.39,0,13.2,2.64,13.2,9.55-.05,3.31-.05,6.53-.05,8.45,0,1.49.29,2.35,1.1,2.45.77.1,1.3-.77,1.92-.62,1.15.29.43,3.98-6.86,3.89-3.55-.05-6.48-1.44-7.01-4.27-1.49,2.83-4.85,4.32-8.3,4.32C3.74,36.58.43,34.32.04,30.72c-.67-7.06,6.96-8.93,12.24-8.93ZM13.63,32.02c2.21-.05,2.64-2.16,2.69-4.66l.05-2.64c-.34-.14-1.25-.43-2.21-.43-1.49,0-3.22.67-3.5,3.65-.19,2.35.86,4.18,2.98,4.08Z"/><path class="cls-1" d="M35.56,27.22c4.22.58,2.74,6,9.03,6.96,2.5.38,3.6-.48,3.6-1.87,0-3.6-15.6-4.99-15.65-12.67-.05-4.32,4.75-7.3,12.24-6.96,6.77.29,10.75,2.21,11.19,4.94.34,1.82-1.2,3.02-3.02,2.79-3.79-.53-3.46-4.9-8.06-5.28-1.78-.14-3.22.53-3.26,1.78-.24,4.37,15.5,3.36,15.89,11.42.29,5.33-4.13,8.35-12.67,8.35-3.02,0-10.66-.91-12.43-5.09-1.06-2.4.38-4.75,3.17-4.37Z"/><path class="cls-1" d="M57.02,2.02c2.11-1.25,5.86-2.02,8.98-2.02,3.84,0,5.33.53,5.33,4.85v12.58c1.78-2.74,4.85-4.56,8.3-4.66,6.1-.1,8.54,2.11,8.54,7.39v10.56h.05v.48c0,.82.48,1.63,1.25,2.11.24.14.53.34.82.53.82.58.34,2.06-.62,2.06h-7.92c-3.55,0-4.27-2.3-4.37-4.75l.05-7.78c0-2.59.24-5.66-2.02-5.62-2.26.05-3.98,3.26-4.08,5.81v7.63c0,.82.53,1.63,1.25,2.11.29.14.53.34.82.53.86.58.38,2.06-.62,2.06h-13.87c-.96,0-1.44-1.49-.62-2.06.29-.19.62-.38.96-.58.82-.38,1.3-1.2,1.3-2.06V5.09c0-.77-.48-.96-1.15-.96-.62,0-1.39.14-2.02.14-1.06-.1-1.34-1.73-.34-2.26Z"/><path class="cls-1" d="M91.96,2.02c2.11-1.25,5.86-2.02,8.98-2.02,3.79,0,5.38.58,5.38,4.85v26.35c0,.82.48,1.63,1.25,2.11.24.14.53.34.82.53.82.58.34,2.06-.62,2.06h-13.92c-.96,0-1.39-1.49-.58-2.06.24-.19.58-.38.96-.58.77-.38,1.3-1.2,1.3-2.06V5.09c0-.77-.48-.96-1.15-.96-.62,0-1.44.14-2.06.14-1.06-.1-1.3-1.73-.34-2.26Z"/><path class="cls-1" d="M124.02,12.77c6.72,0,10.99,3.22,11.67,7.1.91,5.47-7.06,7.82-12.34,7.82-.82,0-1.58-.05-2.21-.14,1.34,3.5,3.5,4.9,6.29,4.94,3.02,0,5.33-1.63,6-4.66.24-1.06.82-1.54,1.73-1.44.96.14,1.25.77,1.06,1.87-1.25,5.9-6,8.3-12.87,8.3-7.97,0-13.01-4.18-13.2-11.91-.19-7.78,5.9-11.9,13.87-11.9ZM120.47,25.15c2.16.19,5.57-.14,6.24-2.59,1.06-3.6-1.3-7.58-4.03-7.01-2.16.43-3.31,4.61-2.21,9.6Z"/><path class="cls-1" d="M136.84,13.44h14.83c.96,0,1.39,1.49.62,2.02-.24.19-.48.34-.77.53-.67.43-.96,1.1-.77,1.82,2.06,4.85,4.32,9.99,4.94,12.62l5.09-11.81h-.05l.29-.62c.29-.77.05-1.54-.72-2.02-.29-.19-.53-.34-.77-.53-.82-.53-.38-2.02.62-2.02h6.14c1.01,0,1.49,1.49.67,2.02-.34.24-.62.43-.91.58-.72.43-1.39,1.1-1.73,1.78l-8.26,18.72c-3.02,6.91-4.85,10.46-11.33,10.56-5.71.1-9.41-3.31-8.5-7.34.43-1.97,2.26-2.83,4.08-2.83,2.21,0,4.46,1.25,4.27,3.22-.24,2.78,1.44,4.27,2.4,4.18.14,0,.34-.05.48-.1,3.98-1.54-3.55-16.13-8.5-26.55-.43-.67-1.06-1.25-1.68-1.58-.43-.19-.82-.38-1.15-.62-.82-.53-.34-2.02.67-2.02ZM147.02,44.31c.1,0,.19,0,.29-.05-.1.05-.19.05-.29.05Z"/><path class="cls-2" d="M167.66,2.02c2.11-1.25,5.95-2.02,9.17-2.02,3.84,0,5.38.48,5.38,4.85v8.93c1.25-.48,2.59-.77,4.03-.91,7.44-.53,12.39,4.27,12.39,11.81s-4.51,11.91-12.15,11.91c-.14,0-.29-.05-.43-.05-4.42-.24-5.23-2.78-7.78-2.3-2.88.53-4.08,1.68-8.74,1.68-.96,0-1.44-1.49-.62-2.06.29-.19.62-.38.96-.58.82-.38,1.3-1.2,1.3-2.06V5.09c0-.77-.48-.96-1.15-.96-.62,0-1.39.14-2.02.14-1.06-.1-1.34-1.73-.34-2.26ZM182.39,25.11c.91,6.91,1.87,9.12,4.08,8.74,2.16-.38,2.16-2.59.96-9.6-1.15-7.01-1.82-8.64-3.98-8.26-2.21.34-1.97,2.06-1.06,9.12Z"/><path class="cls-2" d="M212.73,21.79c1.73,0,3.22.19,4.08.48v-1.63c0-3.65-.72-5.38-2.83-5.42-2.45-.05-2.78,1.44-3.31,3.31-.34,1.25-2.02,1.92-3.7,1.92-2.02,0-4.08-.91-3.94-2.74.19-2.93,4.7-4.94,11.52-4.9,7.39,0,13.2,2.64,13.2,9.55-.05,3.31-.05,6.53-.05,8.45,0,1.49.29,2.35,1.1,2.45.77.1,1.3-.77,1.92-.62,1.15.29.43,3.98-6.86,3.89-3.55-.05-6.48-1.44-7.01-4.27-1.49,2.83-4.85,4.32-8.3,4.32-4.37,0-7.68-2.26-8.07-5.86-.67-7.06,6.96-8.93,12.24-8.93ZM214.07,32.02c2.21-.05,2.64-2.16,2.69-4.66l.05-2.64c-.34-.14-1.25-.43-2.21-.43-1.49,0-3.22.67-3.5,3.65-.19,2.35.86,4.18,2.98,4.08Z"/><path class="cls-2" d="M231.83,2.02c2.11-1.25,5.86-2.02,8.98-2.02,3.79,0,5.38.58,5.38,4.85v26.35c0,.82.48,1.63,1.25,2.11.24.14.53.34.82.53.82.58.34,2.06-.62,2.06h-13.92c-.96,0-1.39-1.49-.58-2.06.24-.19.58-.38.96-.58.77-.38,1.3-1.2,1.3-2.06V5.09c0-.77-.48-.96-1.15-.96-.62,0-1.44.14-2.06.14-1.06-.1-1.3-1.73-.34-2.26Z"/><path class="cls-2" d="M250.31,2.02c2.11-1.25,5.86-2.02,8.98-2.02,3.79,0,5.38.58,5.38,4.85v26.35c0,.82.48,1.63,1.25,2.11.24.14.53.34.82.53.82.58.34,2.06-.62,2.06h-13.92c-.96,0-1.39-1.49-.58-2.06.24-.19.58-.38.96-.58.77-.38,1.3-1.2,1.3-2.06V5.09c0-.77-.48-.96-1.15-.96-.62,0-1.44.14-2.06.14-1.06-.1-1.3-1.73-.34-2.26Z"/></g></svg>