<svg id="a" xmlns="http://www.w3.org/2000/svg" viewBox="0 0 384 512"><path fill="#ffffff" d="M121.45,339.29c0,38.95,31.6,70.55,70.55,70.55s70.55-31.6,70.55-70.55-31.6-70.55-70.55-70.55-70.55,31.6-70.55,70.55Zm117.59,0c0,25.97-21.07,47.04-47.04,47.04s-47.04-21.07-47.04-47.04c0-1.37,.05-2.74,.2-4.12,4.56,2.2,9.85,4.12,15.48,4.12,17.3,0,31.36-14.06,31.36-31.36,0-5.63-1.91-10.93-4.12-15.48,1.37-.15,2.74-.2,4.12-.2,25.97,0,47.04,20.63,47.04,47.04Z"/><polygon fill="#ffffff" points="256 0 256 128 384 128 256 0"/><path fill="#ffffff" d="M224,128V0H64C28.65,0,0,28.65,0,64V448c0,35.3,28.65,64,64,64H320c35.3,0,64-28.7,64-64V160h-128c-17.7,0-32-14.3-32-32Zm107.89,205.26c1.62,3.87,1.62,8.18,0,12.05-7.25,17.49-22.59,42.53-45.52,64.23-23.08,21.46-54.78,39.49-94.37,39.49s-71.29-18.03-94.36-39.49c-22.93-21.71-38.26-46.74-45.55-64.23-1.61-3.87-1.61-8.18,0-12.05,7.29-17.93,22.62-42.97,45.55-64.23,23.07-21.44,54.77-39.49,94.36-39.49s71.29,18.05,94.37,39.49c22.93,21.26,38.27,46.3,45.52,64.23Z"/></svg>